<?xml version="1.0" encoding="UTF-8" standalone="no"?>
<svg
   xmlns:dc="http://purl.org/dc/elements/1.1/"
   xmlns:cc="http://creativecommons.org/ns#"
   xmlns:rdf="http://www.w3.org/1999/02/22-rdf-syntax-ns#"
   xmlns:svg="http://www.w3.org/2000/svg"
   xmlns="http://www.w3.org/2000/svg"
   version="1.1"
   id="svg2"
   viewBox="0 0 1529.8163 315.29141"
   height="315.29141"
   width="1529.8163">
  <defs
     id="defs" />
  <metadata
     id="metadata">
    <rdf:RDF>
      <cc:Work
         rdf:about="">
        <dc:format>image/svg+xml</dc:format>
        <dc:type
           rdf:resource="http://purl.org/dc/dcmitype/StillImage" />
        <dc:title></dc:title>
      </cc:Work>
    </rdf:RDF>
  </metadata>
  <path
     id="path4283"
     d="m 1175.8309,314.64615 c -27.1172,-4.9701 -50.5042,-22.16097 -67.402,-49.5447 -1.4671,-2.37737 -0.7178,-1.94797 3.6099,2.06899 23.6614,21.96217 51.728,32.57316 82.3781,31.14425 26.8235,-1.25051 50.4882,-11.20806 71.0372,-29.89075 7.369,-6.6998 7.4112,-6.61684 1.2778,2.51101 -13.6369,20.29447 -33.9739,35.73995 -54.9169,41.70799 -8.1997,2.33665 -28.1157,3.44535 -35.9841,2.00321 z m 2.6816,-35.15142 c -34.7654,-3.65906 -66.7261,-26.13204 -88.4468,-62.19076 -1.9182,-3.18434 -1.0619,-2.60718 5.303,3.57457 14.7122,14.28879 32.006,24.91375 50.6313,31.10682 17.2103,5.72259 25.4816,7.06618 43.5,7.06618 17.9404,0 26.3079,-1.34869 43.1715,-6.95844 19.0417,-6.33433 34.3289,-15.63787 49.2259,-29.95808 8.5974,-8.26451 9.1933,-8.66795 7,-4.73891 -4.775,8.55385 -18.1155,25.27229 -25.7075,32.21689 -19.6481,17.97276 -40.6691,27.66577 -65.0023,29.97328 -5.8782,0.55742 -10.9126,0.95402 -11.1876,0.88132 -0.275,-0.0727 -4.0944,-0.51049 -8.4875,-0.97287 z m -226.74825,-115.14328 -0.26425,-31.25 -16.79708,-0.27439 -16.79709,-0.27439 0.29709,-6.22561 0.29708,-6.22561 49,0 49,0 0.2977,6.25 0.2977,6.25 -16.3477,0 c -11.38154,0 -16.71224,0.36454 -17.5477,1.2 -0.88053,0.88053 -1.2,9.26667 -1.2,31.5 l 0,30.3 -14.98575,0 -14.98576,0 -0.26424,-31.25 z m 128.64985,29.78872 c -7.9508,-1.45051 -10.6798,-2.63186 -14.6641,-6.348 l -2.75,-2.5649 0,-26.56291 c 0,-30.47693 0.1375,-31.02882 8.4305,-34.92695 7.4805,-3.51626 17.6256,-4.23279 55.5658,-3.92446 l 35.5,0.2885 0.2977,6.25 0.2977,6.25 -29.9227,0 c -16.4575,0 -31.2978,0.27502 -32.9784,0.61115 -5.5107,1.10212 -7.1943,3.65648 -7.1943,10.91485 l 0,6.44808 34.75,0.26296 34.75,0.26296 0,6.5 0,6.5 -34.75,0.26296 -34.75,0.26296 0,6.05278 c 0,3.32903 0.4553,6.90351 1.0118,7.94329 1.8109,3.38367 7.5032,3.96667 38.7859,3.97243 l 30.2977,0.006 -0.2977,6.25 -0.2977,6.25 -37.5,0.16572 c -26.9831,0.11925 -39.4873,-0.19682 -44.5859,-1.127 z M 1236.5,194.9336 c -9.809,-2.13764 -15.5035,-4.5721 -18.3932,-7.86329 l -3.1068,-3.53845 0,-25.49732 c 0,-29.76883 0.3386,-31.36828 7.2911,-34.44373 6.964,-3.08047 19.8369,-3.9724 57.4589,-3.98116 l 35.25,-0.008 0,6.5 0,6.5 -30.25,0.006 c -31.2342,0.006 -36.9278,0.58961 -38.7382,3.97243 -0.5806,1.08482 -1.0118,9.99212 -1.0118,20.90048 0,18.65101 0.046,19.06296 2.4123,21.81575 l 2.4124,2.80576 32.5876,0.28933 32.5877,0.28932 0,6.46068 0,6.46067 -38.25,-0.116 c -21.0375,-0.0638 -39.15,-0.31214 -40.25,-0.55185 z m 129.5,-37.35888 0,-38.02674 14.75,0.27674 14.75,0.27673 0.276,15.25 0.2761,15.25 25.9479,0 25.9479,0 0.2761,-15.25 0.276,-15.25 15,0 15,0 0,37.5 0,37.5 -15,0 -15,0 -0.276,-15.25 -0.2761,-15.25 -25.9739,0 -25.974,0 0,15.5 0,15.5 -15,0 -15,0 0,-38.02673 z M 0,193.1584 c 0,-1.47244 41.69462,-66.55079 44.0613,-68.77234 4.51385,-4.23705 12.44451,-6.06676 24.38054,-5.62492 8.45438,0.31296 11.02081,0.80615 15.12044,2.90569 4.76365,2.4396 5.70413,3.7433 26.67824,36.98168 l 21.74053,34.45294 -14.74053,0.2913 c -16.67836,0.32959 -14.41638,1.35559 -21.58654,-9.7913 l -4.18108,-6.5 -25.48645,0 -25.48645,0 -5.42248,8.25 -5.42248,8.25 -14.82752,0 C 6.67238,193.60145 0,193.40208 0,193.1584 Z m 81.79908,-28.81485 c 0.76828,-0.92573 -1.27341,-4.9528 -7.73164,-15.25 -4.82659,-7.69566 -9.44361,-14.1236 -10.26006,-14.28433 -1.7198,-0.33856 -15.38396,28.05029 -14.32551,29.76289 0.97689,1.58064 30.99188,1.36836 32.31721,-0.22856 z m 121.96537,-1.4921 -0.26445,-30.75 -16.75,-0.27418 -16.75,-0.27418 0,-5.97582 0,-5.97582 49,0 49,0 0,6 0,6 -16.89301,0 c -14.48173,0 -16.97965,0.22578 -17.5,1.58179 -0.33385,0.86998 -0.60699,14.81998 -0.60699,31 l 0,29.41821 -14.48555,0 -14.48555,0 -0.26445,-30.75 z M 341,164.18324 c 0,-16.18002 -0.27314,-30.13002 -0.60699,-31 -0.52035,-1.35601 -3.01827,-1.58179 -17.5,-1.58179 l -16.89301,0 0,-6 0,-6 49,0 49,0 0,5.97582 0,5.97582 -16.75,0.27418 -16.75,0.27418 -0.26445,30.75 -0.26445,30.75 -14.48555,0 -14.48555,0 0,-29.41821 z m 125,28.03103 c -3.025,-0.67077 -6.93518,-1.98048 -8.6893,-2.91048 C 451.04034,185.97934 451,185.77464 451,157.28324 c 0,-30.04827 0.004,-30.06217 8.99214,-34.47671 l 5.50786,-2.70508 42.25,-0.30023 42.25,-0.30023 0,6.0109 0,6.01091 -32.58767,0.28932 -32.58768,0.28933 -2.41232,2.80576 c -1.88643,2.1941 -2.41233,3.94904 -2.41233,8.05 0,2.88433 0.54,5.78424 1.2,6.44424 0.886,0.886 10.04444,1.2 35,1.2 l 33.8,0 0,6 0,6 -34.39301,0 c -38.5176,0 -35.60699,-0.62513 -35.60699,7.64753 0,5.51886 1.19791,7.88633 4.97998,9.84212 2.4211,1.25199 8.23195,1.51035 33.97036,1.51035 l 31.04966,0 0,6 0,6 -39.25,-0.0838 c -26.91385,-0.0575 -40.97863,-0.46711 -44.75,-1.30337 z m 137,-35.65808 0,-37.04526 47.75,0.29526 c 44.03274,0.27227 48.08231,0.44053 52.01872,2.16133 7.44462,3.25442 8.23128,5.08742 8.23128,19.1799 l 0,12.27624 -3.0665,2.58029 c -4.13729,3.4813 -12.36522,5.71994 -23.78978,6.47267 -5.91485,0.38971 -9.63053,1.07002 -9.87455,1.80794 -0.35163,1.06333 4.15773,5.00779 27.10798,23.71206 l 6.87716,5.60483 -16.55998,0 -16.55997,0 -18.01937,-14.75 c -15.06032,-12.32784 -18.02722,-15.18986 -18.06718,-17.42857 -0.0538,-3.01155 2.00778,-5.48568 5.85737,-7.02965 1.42715,-0.57239 9.41144,-1.32221 17.74287,-1.66625 C 681.30864,151.9564 682,151.57074 682,141.93176 c 0,-6.09964 -0.1329,-6.44119 -3.25,-8.35235 -3.01423,-1.84808 -4.77341,-1.97397 -24.25,-1.7353 l -21,0.25734 -0.26445,30.75 -0.26445,30.75 -14.98555,0 -14.98555,0 0,-37.04526 z m 176.3264,36.00088 c -5.69858,-1.12678 -9.78605,-3.38803 -12.16606,-6.73044 -1.85446,-2.60435 -2.01725,-4.67087 -2.27588,-28.88989 -0.31285,-29.29698 -0.25506,-29.57509 6.90476,-33.22776 7.34877,-3.74906 14.11686,-4.27403 50.71078,-3.93336 l 35,0.32583 5.67887,2.66211 c 8.77444,4.11324 8.82113,4.29236 8.82113,33.83789 0,19.57459 -0.30859,25.69607 -1.40196,27.81042 -1.7611,3.40559 -7.52499,6.64025 -14.39726,8.07965 -6.18743,1.29597 -70.37488,1.3507 -76.87438,0.0656 z m 61.26191,-14.26138 C 842.95308,175.54451 843,175.12245 843,156.60145 c 0,-18.51959 -0.0471,-18.94327 -2.41112,-21.69424 l -2.41113,-2.80576 -16.80815,-0.32015 c -18.82236,-0.35853 -22.62055,0.0711 -25.42538,2.87593 -1.78966,1.78966 -1.94422,3.45988 -1.94422,21.00996 0,11.72589 0.41529,19.84172 1.07874,21.08138 2.21679,4.14212 6.23632,4.875 25.25957,4.60555 l 17.8383,-0.25267 2.4117,-2.80576 z M 1506.5,142.02886 c -4.5263,-2.3541 -7.3161,-5.3401 -8.587,-9.19105 -3.6522,-11.06627 5.4842,-22.12526 17.3378,-20.98628 8.3531,0.80262 13.8187,6.44012 14.5026,14.95845 0.4915,6.12252 -1.8834,10.61466 -7.6751,14.51767 -4.0327,2.71769 -11.0903,3.03536 -15.5783,0.70121 z m 15.7945,-5.26036 c 6.1065,-6.10656 4.1698,-17.07053 -3.6764,-20.81213 -10.1944,-4.86135 -21.2185,7.35694 -15.9205,17.64508 3.7992,7.37765 13.7742,8.98971 19.5969,3.16705 z m -15.082,-8.41705 0.2875,-9.25 4.3317,-0.31149 c 5.3832,-0.38711 9.1683,1.82817 9.1683,5.36593 0,1.37958 -0.6319,2.75082 -1.4043,3.04719 -1.2039,0.46198 -1.2047,0.92119 -0.01,3.21862 0.7689,1.47386 1.4009,3.72525 1.4042,5.00307 0.01,3.60717 -3.2855,2.29781 -4.6192,-1.8355 -0.7495,-2.32301 -1.8349,-3.59454 -3.25,-3.80737 -1.8704,-0.28132 -2.1246,0.16728 -2.1246,3.75 0,3.42787 -0.3213,4.06955 -2.0375,4.06955 -1.9239,0 -2.0215,-0.5158 -1.75,-9.25 z m 9.4646,-3.35092 c 0.6738,-1.75592 -1.1876,-3.3598 -3.9271,-3.38377 -1.2041,-0.0105 -1.75,0.76457 -1.75,2.48469 0,2.00827 0.4979,2.5 2.5314,2.5 1.3985,0 2.8063,-0.71644 3.1457,-1.60092 z m -428.1773,-24.39908 c 3.3733,-5.985917 12.3625,-18.687477 17.4457,-24.650417 12.8196,-15.0382 30.994,-27.94823 48.2833,-34.2976 13.1693,-4.83633 17.5937,-5.5118 35.7712,-5.4611 16.0751,0.0448 18.2328,0.26968 26.5,2.76157 29.1077,8.7736 52.121,27.2225 70.7533,56.72039 l 4.0597,6.427157 -8.4681,-8.091637 c -36.8598,-35.22119 -88.2989,-46.83267 -136.449,-30.801 -18.0272,6.00219 -35.2262,16.49502 -49.8173,30.39264 -4.9082,4.675 -8.5437,7.824997 -8.0788,6.999997 z m 177.5976,-52.531817 c -15.8317,-15.89791 -38.8938,-27.10802 -62.5317,-30.39576 -31.8068,-4.42391 -65.6221,6.68796 -90.3157,29.67816 -3.4375,3.20037 -6.25,5.63875 -6.25,5.41862 0,-1.03738 9.4087,-14.30327 13.84,-19.51391 29.5054,-34.6942299 75.019,-43.1919399 112.4779,-21.00039 13.1792,7.8077 29.6174,25.10151 39.062,41.0951 1.2653,2.14274 0.3185,1.34669 -6.2825,-5.28182 z"
     style="fill:#ffffff" />
</svg>
