<?xml version="1.0" encoding="UTF-8" standalone="no"?>
<svg
   xmlns:dc="http://purl.org/dc/elements/1.1/"
   xmlns:cc="http://creativecommons.org/ns#"
   xmlns:rdf="http://www.w3.org/1999/02/22-rdf-syntax-ns#"
   xmlns:svg="http://www.w3.org/2000/svg"
   xmlns="http://www.w3.org/2000/svg"
   viewBox="0 0 424.54062 93.960935"
   height="93.960938"
   width="424.54062"
   xml:space="preserve"
   version="1.1"
   id="svg2"><metadata
     id="metadata8"><rdf:RDF><cc:Work
         rdf:about=""><dc:format>image/svg+xml</dc:format><dc:type
           rdf:resource="http://purl.org/dc/dcmitype/StillImage" /><dc:title></dc:title></cc:Work></rdf:RDF></metadata><defs
     id="defs6"><clipPath
       id="clipPath62"
       clipPathUnits="userSpaceOnUse"><path
         id="path64"
         d="M 0.636719,876.383 C 0.636719,614.066 214.043,408.5 476.367,408.5 730.07,408.5 944.25,614.301 944.25,876.383 944.25,1138.7 738.684,1352.12 476.367,1352.12 214.043,1352.12 0.636719,1138.7 0.636719,876.383 Z m 13.656281,0 c 0,254.787 207.285,462.077 462.074,462.077 254.797,0 462.082,-207.29 462.082,-462.077 0,-254.797 -207.285,-462.082 -462.082,-462.082 -254.789,0 -462.074,207.285 -462.074,462.082" /></clipPath><clipPath
       id="clipPath470"
       clipPathUnits="userSpaceOnUse"><path
         id="path472"
         d="m 61.5742,876.383 c 0,-228.723 186.0738,-414.797 414.7928,-414.797 228.723,0 414.797,186.074 414.797,414.797 0,228.717 -186.074,414.797 -414.797,414.797 -228.719,0 -414.7928,-186.08 -414.7928,-414.797 z m 5.8008,0 c 0,223.567 181.945,408.987 408.992,408.987 221.184,0 401.133,-187.8 401.133,-408.987 0,-221.184 -179.949,-401.145 -401.133,-401.145 -221.191,0 -408.992,179.961 -408.992,401.145" /></clipPath><clipPath
       id="clipPath768"
       clipPathUnits="userSpaceOnUse"><path
         id="path770"
         d="m 258.301,719.691 c -27.715,41.778 -51.25,92.696 -51.25,156.692 0,62.797 21.621,119.195 51.25,164.037 l 16.75,32.28 -4.996,-6.28 -4.61,-5.78 C 224.043,1008.68 201.25,943.242 201.25,876.383 c 0,-66.867 22.793,-132.317 64.195,-184.27 l 9.606,-12.05 -16.75,39.628" /></clipPath><clipPath
       id="clipPath856"
       clipPathUnits="userSpaceOnUse"><path
         id="path858"
         d="m 686.164,1046.6 c 27.93,-44.8 51.668,-104.83 51.668,-170.217 0,-66.242 -23.738,-118.723 -51.668,-163.528 l -8.476,-32.792 9.609,12.05 c 41.394,51.973 64.199,117.403 64.199,184.27 0,66.859 -22.805,132.297 -64.199,184.257 l -9.609,12.06 8.476,-26.1" /></clipPath><clipPath
       id="clipPath908"
       clipPathUnits="userSpaceOnUse"><path
         id="path910"
         d="m 336.711,953.688 c -4.563,0 -8.273,-3.715 -8.273,-8.282 l 0,-138.078 c 0,-4.551 3.71,-8.262 8.273,-8.262 l 279.316,0 c 4.551,0 8.27,3.711 8.27,8.262 l 0,138.078 c 0,4.567 -3.719,8.282 -8.27,8.282 l -279.316,0 z m 273.934,-5.805 c 0,-4.524 0,-130.633 0,-135.164 -4.676,0 -271.735,0 -276.407,0 0,4.531 0,130.64 0,135.164 4.672,0 271.731,0 276.407,0" /></clipPath><clipPath
       id="clipPath1028"
       clipPathUnits="userSpaceOnUse"><path
         id="path1030"
         d="m 610.645,1163.04 c 0,0 0,-134.24 0,-138.86 -4.676,0 -271.735,0 -276.407,0 0,4.62 0,138.86 0,138.86 0,13.76 -3.34,24.95 -17.097,24.95 -4.551,0 -9.024,-1.26 -12.93,-3.64 -108.613,-65.93 -173.465,-181.06 -173.465,-307.967 0,-126.906 64.84,-234.055 173.445,-299.992 3.934,-2.364 8.411,-3.614 12.95,-3.614 12.976,0 17.097,11.758 17.097,16.953 0,0 0,142.071 0,146.7 4.672,0 271.731,0 276.407,0 0,-4.629 0,-146.7 0,-146.7 0,-13.769 11.191,-17.109 24.953,-17.109 2.382,0 5.359,0.43 8.836,2.5 102.238,61.055 169.687,173.301 169.687,301.262 0,115.062 -56.98,242.037 -165.574,307.977 -3.938,2.38 -8.41,3.63 -12.949,3.63 -13.762,0 -24.953,-11.19 -24.953,-24.95 z m 5.382,-152.52 c 4.551,0 8.27,3.71 8.27,8.27 l 0,144.25 c 0,6.23 5.07,11.3 11.301,11.3 2.05,0 4.05,-0.57 5.82,-1.65 104.512,-63.44 166.902,-174.202 166.902,-296.307 0,-122.102 -62.371,-232.863 -166.863,-296.297 -1.797,-1.098 -3.828,-1.664 -5.859,-1.664 -6.231,0 -11.301,5.078 -11.301,11.308 l 0,144.239 c 0,4.551 -3.719,8.261 -8.27,8.261 l -279.316,0 c -4.563,0 -8.273,-3.71 -8.273,-8.261 l 0,-144.239 c 0,-6.23 -5.067,-11.308 -11.297,-11.308 -2.043,0 -4.055,0.566 -5.828,1.641 -104.516,63.437 -166.907,174.218 -166.907,296.32 0,122.094 62.383,232.867 166.875,296.307 1.797,1.07 3.821,1.65 5.86,1.65 6.23,0 11.297,-5.07 11.297,-11.3 l 0,-144.25 c 0,-4.56 3.71,-8.27 8.273,-8.27 l 279.316,0" /></clipPath><clipPath
       id="clipPath1664"
       clipPathUnits="userSpaceOnUse"><path
         id="path1666"
         d="m 476.367,457.621 c -231.269,0 -418.7498,187.481 -418.7498,418.762 0,231.277 187.4808,418.757 418.7498,418.757 231.281,0 418.762,-187.48 418.762,-418.757 0,-231.281 -187.481,-418.762 -418.762,-418.762 z M 639.406,1169.3 c -1.113,0.68 -2.422,1.07 -3.808,1.07 -4.055,0 -7.344,-3.29 -7.344,-7.33 l 0,-142.29 c 0,-8.09 -6.563,-14.67 -14.668,-14.67 l -274.43,0 c -8.109,0 -14.672,6.58 -14.672,14.67 l 0,142.29 c 0,4.04 -3.281,7.33 -7.343,7.33 -1.387,0 -2.696,-0.39 -3.809,-1.07 -98.887,-60.05 -164.969,-168.77 -164.969,-292.917 0,-124.153 66.082,-232.883 164.969,-292.922 1.113,-0.664 2.422,-1.074 3.809,-1.074 4.062,0 7.343,3.281 7.343,7.343 l 0,142.266 c 0,8.106 6.563,14.688 14.672,14.688 l 274.43,0 c 8.105,0 14.668,-6.582 14.668,-14.688 l 0,-142.266 c 0,-4.062 3.289,-7.343 7.344,-7.343 1.386,0 2.695,0.41 3.808,1.074 98.895,60.039 164.961,168.769 164.961,292.922 0,124.147 -66.066,232.867 -164.961,292.917 z M 197.289,876.383 c 0,80.894 31.891,154.247 83.621,207.867 -3.418,-21.32 -5.351,-45.42 -5.351,-70.89 l 0,-273.962 c 0,-25.468 1.933,-49.589 5.351,-70.898 -51.73,53.633 -83.621,126.973 -83.621,207.883 z m 430.965,-66.106 c 0,-8.105 -6.563,-14.668 -14.668,-14.668 l -274.43,0 c -8.109,0 -14.672,6.563 -14.672,14.668 l 0,132.207 c 0,8.114 6.563,14.676 14.672,14.676 l 274.43,0 c 8.105,0 14.668,-6.562 14.668,-14.676 l 0,-132.207 z M 671.836,668.5 c 3.43,21.309 5.344,45.43 5.344,70.898 l 0,273.962 c 0,25.47 -1.914,49.57 -5.344,70.89 51.73,-53.62 83.605,-126.973 83.605,-207.867 0,-80.91 -31.875,-154.25 -83.605,-207.883 z M 18.5703,876.383 c 0,-252.434 205.3677,-457.805 457.7967,-457.805 252.434,0 457.793,205.371 457.793,457.805 0,252.427 -205.359,457.797 -457.793,457.797 -252.429,0 -457.7967,-205.37 -457.7967,-457.797" /></clipPath><radialGradient
       id="radialGradient1670"
       gradientTransform="matrix(77.2986,0,0,-77.2986,47.6368,-18.758)"
       gradientUnits="userSpaceOnUse"
       r="1"
       cy="0"
       cx="0"
       fy="0"
       fx="0"><stop
         id="stop1672"
         offset="0"
         style="stop-opacity:1;stop-color:#eaeced" /><stop
         id="stop1674"
         offset="0.064"
         style="stop-opacity:1;stop-color:#eaeced" /><stop
         id="stop1676"
         offset="0.4607"
         style="stop-opacity:1;stop-color:#e1e5e6" /><stop
         id="stop1678"
         offset="0.7075"
         style="stop-opacity:1;stop-color:#5d6a72" /><stop
         id="stop1680"
         offset="0.99"
         style="stop-opacity:1;stop-color:#dfe2e4" /><stop
         id="stop1682"
         offset="1"
         style="stop-opacity:1;stop-color:#dfe2e4" /></radialGradient><clipPath
       id="clipPath1690"
       clipPathUnits="userSpaceOnUse"><path
         style="clip-rule:evenodd"
         id="path1692"
         d="m 23.5938,876.383 c 0,-249.66 203.1172,-452.785 452.7732,-452.785 249.66,0 452.774,203.125 452.774,452.785 0,249.667 -203.114,452.777 -452.774,452.777 -249.656,0 -452.7732,-203.11 -452.7732,-452.777 z m -10.2813,0 c 0,-255.324 207.7225,-463.059 463.0545,-463.059 255.324,0 463.059,207.735 463.059,463.059 0,255.327 -207.735,463.047 -463.059,463.047 -255.332,0 -463.0545,-207.72 -463.0545,-463.047" /></clipPath><clipPath
       id="clipPath2098"
       clipPathUnits="userSpaceOnUse"><path
         style="clip-rule:evenodd"
         id="path2100"
         d="m 52.2773,876.383 c 0,233.847 190.2427,424.087 424.0897,424.087 233.84,0 424.094,-190.24 424.094,-424.087 0,-233.84 -190.254,-424.094 -424.094,-424.094 -233.847,0 -424.0897,190.254 -424.0897,424.094 z m 10.2813,-0.082 c 0,228.219 185.6364,413.899 413.8084,413.899 228.176,0 413.809,-185.68 413.809,-413.899 0,-228.133 -185.633,-413.738 -413.809,-413.738 -228.172,0 -413.8084,185.605 -413.8084,413.738" /></clipPath><clipPath
       id="clipPath2400"
       clipPathUnits="userSpaceOnUse"><path
         style="clip-rule:evenodd"
         id="path2402"
         d="m 670.156,1093.53 -6.523,6.41 15.265,-30.58 5.04,-6.15 c 42.917,-52.33 66.562,-118.687 66.562,-186.827 0,-68.137 -23.645,-134.504 -66.562,-186.828 l -5.04,-6.153 -15.265,-30.586 6.523,6.407 c 58.438,57.539 90.625,134.648 90.625,217.16 0,82.504 -32.187,159.627 -90.625,217.147" /></clipPath><clipPath
       id="clipPath2462"
       clipPathUnits="userSpaceOnUse"><path
         style="clip-rule:evenodd"
         id="path2464"
         d="m 273.828,683.422 0,0 -5.035,6.133 c -42.918,52.343 -66.555,118.691 -66.555,186.828 0,68.133 23.637,134.487 66.555,186.827 l 5.035,6.14 15.258,30.59 -6.512,-6.41 C 224.141,1036 191.953,958.883 191.953,876.383 c 0,-82.512 32.188,-159.621 90.625,-217.16 l 6.516,-6.407 -15.266,30.606" /></clipPath><clipPath
       id="clipPath2570"
       clipPathUnits="userSpaceOnUse"><path
         id="path2572"
         d="m 319.348,807.133 c -0.02,0.019 0,0 0,0 0.007,-9.688 7.683,-17.344 17.363,-17.344 0,0 279.297,-0.019 279.316,-0.019 9.676,0 17.559,7.89 17.559,17.558 l 0,138.094 c 0,9.687 -7.883,17.566 -17.559,17.566 l -279.316,0 c -9.684,0 -17.566,-7.879 -17.566,-17.566 l 0.007,-132.156 c 0,-3.047 0.047,-4.825 0.196,-6.133 z m 17.363,-7.07 c -4.016,0 -7.285,3.261 -7.285,7.285 l 0,138.074 c 0,4.016 3.269,7.285 7.285,7.285 l 279.316,0 c 4.012,0 7.286,-3.269 7.286,-7.285 l 0,-138.094 c 0,-4.004 -3.274,-7.265 -7.286,-7.265 -0.019,0 -279.316,0 -279.316,0" /></clipPath><clipPath
       id="clipPath2680"
       clipPathUnits="userSpaceOnUse"><path
         style="clip-rule:evenodd"
         id="path2682"
         d="m 633.586,1163.04 0,-144.25 c 0,-9.68 -7.883,-17.56 -17.559,-17.56 l -279.316,0 c -9.684,0 -17.566,7.88 -17.566,17.56 l 0,144.25 c 0,1.1 -0.899,2 -2,2 l -1.036,-0.29 C 214.414,1103.01 153.703,995.207 153.703,876.383 c 0,-118.82 60.711,-226.633 162.406,-288.371 l 1.036,-0.293 c 1.101,0 2,0.898 2,2.011 l 0,144.239 c 0,9.687 7.882,17.558 17.566,17.558 l 279.316,0 c 9.676,0 17.559,-7.871 17.559,-17.558 l 0,-144.239 c 0,-1.113 0.898,-2.011 2.012,-2.011 l 1.023,0.293 c 101.711,61.738 162.414,169.551 162.414,288.371 0,118.824 -60.703,226.627 -162.402,288.367 l -1.035,0.29 c -1.114,0 -2.012,-0.9 -2.012,-2 z m -10.273,0 0,-144.25 c 0,-4.01 -3.274,-7.28 -7.286,-7.28 l -279.316,0 c -4.016,0 -7.285,3.27 -7.285,7.28 l 0,144.25 c 0,6.76 -5.508,12.27 -12.281,12.27 -2.247,0 -4.45,-0.61 -6.368,-1.77 -104.789,-63.63 -167.359,-174.712 -167.359,-297.157 0,-122.453 62.57,-233.547 167.363,-297.16 1.926,-1.172 4.121,-1.778 6.364,-1.778 6.773,0 12.281,5.508 12.281,12.285 l 0,144.239 c 0,4.023 3.269,7.285 7.285,7.285 l 279.316,0 c 4.012,0 7.286,-3.262 7.286,-7.285 l 0,-144.239 c 0,-6.777 5.507,-12.285 12.285,-12.285 2.234,0 4.441,0.606 6.355,1.778 104.797,63.613 167.363,174.707 167.363,297.16 0,122.445 -62.566,233.527 -167.363,297.167 -1.914,1.15 -4.109,1.76 -6.355,1.76 -6.778,0 -12.285,-5.51 -12.285,-12.27" /></clipPath></defs><path
     id="path16"
     d="M 46.98125,0 C 21.08749,0 0,21.086127 0,46.979687 c 0,25.894239 21.087462,46.981249 46.98125,46.981249 25.894274,0 46.978124,-21.08703 46.978124,-46.981249 C 93.959374,21.086138 72.875497,0 46.98125,0 Z m 0,6.304688 c 22.479631,0 40.674996,18.19582 40.674996,40.674999 0,22.479599 -18.195405,40.676569 -40.674996,40.676569 -22.478358,0 -40.675,-18.19691 -40.675,-40.676569 0,-0.703989 0.016484,-1.40172 0.051562,-2.093749 C 7.4475852,23.386558 25.205309,6.304688 46.98125,6.304688 Z M 226.09844,14.15 c -17.939,0 -28.44844,14.346 -28.44844,32.4375 0,18.182496 10.50844,32.437496 28.44844,32.437496 18.028,0 28.45,-14.255 28.45,-32.437496 0,-18.0915 -10.421,-32.4375 -28.45,-32.4375 z m 57.75,0 c -13.045,0 -22.92031,7.311062 -22.92031,19.464062 0,11.0558 8.00937,16.590963 17.75937,18.639063 l 2.17187,0.45625 c 8.092,1.7012 11.05469,2.923763 11.05469,6.851561 0,3.6562 -3.35237,6.12344 -8.33437,6.12344 -6.07,0 -11.50543,-2.64996 -15.67344,-7.951563 l -9.875,9.687503 c 5.43599,6.4864 12.31912,11.60468 25.72812,11.60468 11.597,0 23.91876,-6.57965 23.91876,-20.193746 0,-14.2527 -10.65769,-16.970275 -19.47969,-18.821875 l -2.175,-0.45625 c -5.271,-1.1086 -9.42031,-2.468263 -9.42031,-6.214063 0,-4.112 3.98618,-5.756249 7.51718,-5.756249 5.164,0 9.69594,2.557249 12.68594,5.756249 l 9.60312,-9.503124 C 302.05937,18.900938 294.90344,14.15 283.84844,14.15 Z m 58.38906,0.09219 c -18.664,-1e-6 -28.8125,14.528187 -28.8125,31.979687 0,18.365599 11.23325,32.803119 28.63125,32.803119 12.229,0 18.12037,-4.29611 24.45937,-13.43281 L 353.925,57.095315 c -2.539,4.203101 -5.25631,7.126561 -11.14531,7.126561 -6.795,0 -13.95312,-5.646899 -13.95312,-17.999999 0,-11.0226 6.615,-17.178125 13.5,-17.178125 5.435,0 8.69936,2.558612 11.23436,6.945312 l 12.50626,-8.314062 c -6.256,-9.412 -13.59369,-13.432812 -23.82969,-13.432812 z m -201.1625,1.462499 0,61.857807 31.62031,0 c 9.696,0 19.3,-6.85231 19.3,-17.27031 0,-12.241797 -11.23594,-14.799684 -11.23594,-14.892184 0,0 8.5172,-2.923762 8.5172,-12.701562 0,-11.421 -8.06482,-16.993751 -19.20782,-16.993751 l -28.99375,0 z m 232.1875,0 0,61.857807 16.21563,0 0,-24.395306 18.75312,0 0,24.395306 16.30937,0 0,-61.857807 -16.30937,0 0,22.751563 -18.75312,0 0,-22.751563 -16.21563,0 z M 30.075,16.381252 30.0125,16.696877 c -9.57099,5.83172 -16.165673,16.070473 -16.953125,27.895313 -0.05258,0.789559 -0.07813,1.58503 -0.07813,2.387499 0,12.841107 6.838081,24.104377 17.073438,30.318747 l 0.0047,0.002 0.0031,0.002 c 0.279246,0.16659 0.619328,0.27812 0.996875,0.27812 1.052541,0 1.932813,-0.88184 1.932813,-1.93437 l 0,-14.22657 c 0,-0.16289 0.105592,-0.26875 0.267187,-0.26875 l 27.44375,0 c 0.160874,0 0.265625,0.10471 0.265625,0.26875 l 0,14.22657 c 0,1.05391 0.881417,1.93437 1.934375,1.93437 0.377561,0 0.715712,-0.1113 0.995312,-0.27812 l 0.0047,-0.002 0.0031,-0.002 c 10.23624,-6.21441 17.074996,-17.47779 17.075004,-30.318747 0,-12.838829 -6.836334,-24.098112 -17.070317,-30.314062 l -0.0047,-0.0031 c -0.291215,-0.17705 -0.636308,-0.28125 -1.003125,-0.28125 -0.264729,0 -0.521918,0.05551 -0.753125,0.153125 -0.695984,0.29434 -1.18125,0.988607 -1.18125,1.779687 l 0,14.229688 c 0,0.16116 -0.104806,0.267188 -0.265625,0.267188 l -27.44375,0 c -0.161558,0 -0.267187,-0.107168 -0.267187,-0.267188 l 0,-14.229688 c 0,-1.053849 -0.879031,-1.932812 -1.932813,-1.932812 l -0.984375,0 z m 126.22188,12.20625 11.32656,0 c 3.533,0 5.88749,2.375438 5.88749,5.848438 0,2.741 -2.17493,5.664062 -6.16093,5.664062 l -11.05312,0 0,-11.5125 z m 69.80156,0.45625 c 8.788,0 13.22656,7.85785 13.22656,17.54375 0,9.7762 -4.43856,17.634374 -13.22656,17.634374 -8.789,0 -13.13594,-7.858174 -13.13594,-17.634374 0,-9.6859 4.34794,-17.54375 13.13594,-17.54375 z m -200.145315,0.8875 C 25.873715,31.060662 25.7,32.082255 25.7,33.282815 l 0,27.396871 c 0,1.13123 0.11063,2.15852 0.18125,3.22813 -3.475141,-4.745769 -5.609375,-10.555416 -5.609375,-16.928127 0,-0.485209 0.01382,-0.968067 0.0375,-1.448437 0.28896,-5.86122 2.385088,-11.19568 5.64375,-15.6 z m 42.059375,0.0375 c 3.513885,4.76026 5.675,10.599448 5.675,17.010937 0,6.412307 -2.161606,12.251596 -5.675,17.012497 0.07741,-1.1175 0.25,-2.12651 0.25,-3.3125 l 0,-27.396871 c 0,-1.187091 -0.17246,-2.196183 -0.25,-3.314063 z m -34.753125,10.134375 27.44375,0 c 0.163216,0 0.265625,0.101708 0.265625,0.267188 l 0,13.220312 c 0,0.16388 -0.103308,0.26875 -0.265625,0.26875 l -27.44375,0 c -0.163037,0 -0.267187,-0.106014 -0.267187,-0.26875 l 0,-13.220312 c 0,-0.164331 0.103252,-0.267188 0.267187,-0.267188 z m 123.037505,12.423437 11.05312,0 c 5.526,0 8.15469,2.466388 8.15469,6.029688 0,4.478494 -3.26125,6.123434 -7.88125,6.123434 l -11.32656,0 0,-12.153122 z"
     style="fill:#ffffff;fill-opacity:1;fill-rule:evenodd;stroke:none" /></svg>