<svg xmlns="http://www.w3.org/2000/svg" height="35" width="240"><path style="fill:#fff;" d="m 5,20 -5,0 0,-10 5,0 z m 0,15 -5,0 0,-10 5,0 z m 45,0 -40,0 0,-25 35,0 0,-10 5,0 z m -5,-5 0,-15 -30,0 0,15 z m 50,5 -40,0 0,-25 40,0 0,15 -35,0 0,5 35,0 z m -5,-15 0,-5 -30,0 0,5 z m 50,15 -40,0 0,-25 5,0 0,20 30,0 0,-20 5,0 z m 45,0 -40,0 0,-5 35,0 0,-5 -35,0 0,-15 40,0 0,5 -35,0 0,5 35,0 z m 45,0 -40,0 0,-25 40,0 z m -5,-5 0,-15 -30,0 0,15 z m 15,-10 -5,0 0,-10 5,0 z m 0,15 -5,0 -0,-10 5,0 z" /></svg>
