<svg width="256" xmlns="http://www.w3.org/2000/svg" viewBox="0 0 256 47" height="47"><g transform="matrix(1.25 0 0 -1.25 0 47)"><path d="m0 37.6v-1.2846c1.761 0 4.0187 0.000421 4.7345-1.8994 0.5508-1.5089 0.55094-5.6436 0.55094-7.4312v-15.755c0-1.7896-0.0001347-5.9236-0.55094-7.4302-0.7158-1.9004-2.9735-1.9003-4.7345-1.9003v-1.2841c2.9169 0.05508 5.6721 0.16669 8.4765 0.22191 2.8085-0.05522 5.6715-0.16683 8.4805-0.22191v1.2841c-1.927 0.1124-4.625-0.3353-5.451 1.9009-0.551 1.5066-0.551 5.6408-0.551 7.3746v7.0379c5.2849 0 8.2055-0.11031 8.9769-5.9768h1.2638c-0.05559 2.2903-0.10921 4.6373-0.21869 6.9275 0.10948 2.5142 0.16311 5.0849 0.21869 7.599h-1.2638c-0.333-4.023-1.433-7.096-8.977-6.76v12.513c0.11211 3.5211-0.05533 3.1319 4.3523 3.1319 2.641 0 5.7795 0.05408 8.1453-1.008 2.4779-1.0602 3.0293-3.4077 3.6899-5.8095h1.2675l-0.88108 8.7711c-5.894-0.056-11.784-0.167-17.674-0.223-3.2481 0.056-6.498 0.167-9.855 0.224zm201.51-1.3735c-0.90405 0-1.6741-0.31906-2.3121-0.95546-0.64161-0.64111-0.96151-1.4129-0.96151-2.3158 0-0.91102 0.3175-1.6861 0.95205-2.3274 0.63791-0.64286 1.4114-0.9644 2.3215-0.9644 0.90976 0 1.6843 0.32154 2.3262 0.9644 0.64061 0.64363 0.96151 1.4198 0.96151 2.3274 0 0.90698-0.3209 1.6767-0.96151 2.3158-0.64195 0.6364-1.4165 0.95546-2.3262 0.95546zm-49.524-0.44329c-1.6516 0-2.9734-1.3422-2.9734-3.0157 0-1.7326 1.4309-2.9621 3.0812-2.9621 1.5413 0 2.8088 1.34 2.8088 2.9621 0 1.6735-1.2677 3.0157-2.9166 3.0157zm49.518-0.0042c0.78124 0 1.448-0.27775 2.0008-0.83136 0.54875-0.55125 0.82325-1.2161 0.82325-1.9956 0-0.78653-0.2745-1.4563-0.82325-2.0098-0.54976-0.55438-1.2162-0.83084-2.0008-0.83084-0.78495 0-1.4526 0.27645-2.0014 0.83084-0.54639 0.55344-0.81904 1.2232-0.81904 2.0098 0 0.77953 0.27431 1.4443 0.82272 1.9956 0.55246 0.55361 1.2188 0.83136 1.9977 0.83136zm-1.3206-1.0107v-3.6052h0.63504v1.4172h0.50205c0.33814 0 0.57374-0.03942 0.70866-0.11569 0.22711-0.13448 0.34118-0.40869 0.34118-0.82452v-0.28501l0.0136-0.11621c0.002-0.01538 0.006-0.02839 0.008-0.03996 0.003-0.01144 0.006-0.02341 0.009-0.03576h0.59405l-0.0221 0.0447c-0.0158 0.03022-0.0258 0.09268-0.0316 0.18773-0.006 0.09504-0.009 0.18455-0.009 0.26818v0.26292c0 0.18207-0.065 0.36834-0.19451 0.55845-0.12986 0.19035-0.3341 0.30775-0.61403 0.35284 0.22173 0.03537 0.39477 0.09425 0.51994 0.17458 0.23349 0.15249 0.35116 0.38937 0.35116 0.71252 0 0.45366-0.18694 0.75772-0.5604 0.91287-0.20994 0.08784-0.53826 0.13041-0.98675 0.13041h-1.2648zm0.63504-0.44907h0.54622c0.35596 0 0.61252-0.04333 0.77436-0.13251 0.16049-0.08851 0.24129-0.2625 0.24129-0.52164 0-0.27468-0.12416-0.45973-0.37482-0.5574-0.13492-0.05324-0.33807-0.0794-0.60824-0.0794h-0.57881v1.2909zm-35.19-3.424c-1.1564-3.1856-3.91-5.4199-6.6628-7.0395v-1.0038h2.8094v-17.097c0-4.1905 2.6968-5.7543 6.6602-5.7543 2.6442 0 5.3982 0.89366 6.3894 3.5763l-0.99096 0.72461c-1.048-1.3955-2.0388-2.5135-3.9643-2.5135-2.917 0-3.415 2.6259-3.415 5.1401v15.924h6.2759v1.5071h-6.2759v6.5362h-0.82588zm-128.38-5.587c-6.718 0-13.214-5.1955-13.214-12.347 0-7.3766 6.0582-12.962 13.214-12.962 7.2135 0 13.267 5.1962 13.267 12.738 0 7.2084-6.4399 12.57-13.267 12.57zm29.559 0c-7.6516 0-13.489-5.643-13.489-13.467 0-6.9254 5.0121-11.841 11.837-11.841 3.5802 0 7.38 1.3955 9.6914 4.3009l-1.1555 1.0054c-1.761-2.067-4.185-3.5194-6.938-3.5194-6.222 0-7.9276 5.5851-7.9276 10.951 0 4.9167 1.8177 11.061 7.7641 11.061 2.0359 0 2.4772-0.44655 3.1364-2.1218 0.38625-1.0613 1.1022-2.1812 2.4214-2.1812 0.99253 0 1.8174 1.0635 1.8174 2.0681 0 3.0742-5.0074 3.7445-7.157 3.7445zm47.179 0c-3.7945 0-6.8236-2.8484-6.8236-6.7056 0-4.1905 3.4126-6.0333 6.6065-7.7094 2.368-1.2291 5.5614-2.5133 5.5614-5.6975 0-2.683-2.2021-3.9102-4.6272-3.9102-4.0731 0-5.946 3.518-6.8268 7.0947h-1.0987l0.21921-7.9913h0.54989l1.3737 1.6222c1.6543-1.3416 3.9654-2.0114 6.0608-2.0114 4.2373 0 8.0911 2.7922 8.0911 7.3723 0 5.029-3.467 6.4815-7.2689 8.4929-2.0907 1.1759-5.1177 2.179-5.1177 5.086 0 2.0107 1.7055 3.0715 3.5217 3.0715 3.4702 0 4.6805-2.9612 5.6724-5.7548h1.1008l0.1104 6.9858h-0.66291l-1.0977-1.3409c-1.5426 0.89301-3.6345 1.3956-5.3443 1.3956zm17.679 0c-2.4211-0.55755-4.8463-1.5649-7.433-1.7306v-1.1179c1.7617 0 3.1395 0.22233 3.6358-1.7884 0.38287-1.2858 0.32856-5.2514 0.32856-6.7608v-6.8733c0-3.6849 0.27596-5.0259-3.855-5.3052v-1.1174c2.1472 0.055082 4.2397 0.1667 6.3863 0.22191 2.0931-0.055212 4.2411-0.16682 6.3332-0.22191v1.1174c-4.6235 0.22349-4.1846 1.5649-4.1846 5.6402v5.5319c0 2.5723 0.00021 5.3077 1.2669 7.599 0.82565 1.3956 2.6412 2.7949 4.2945 2.7949 2.1482 0 1.6512-2.9069 3.9633-2.9069 1.047 0 1.9278 0.94915 1.9278 2.0119 0 2.068-2.2023 2.9053-3.9081 2.9053-3.7995 0-6.5528-2.2341-7.9834-5.6428h-0.11092c0.0549 2.0115-0.16339 4.0232-0.66134 5.6428zm23.289 0-8.701-1.7306v-1.1179c1.1022 0.05509 3.4142 0.16709 3.7988-1.231 0.2234-0.83768 0.22342-5.1388 0.22342-6.2008v-7.9907c-0.0551-3.6849 0.27325-5.0259-3.8008-5.3052v-1.1174c2.1469 0.055082 4.2944 0.1667 6.442 0.22191 1.9814-0.055212 4.0166-0.16682 5.89-0.22191v1.1174c-4.35 0.27936-3.7447 1.9553-3.8524 5.6402v17.936zm32.58 0c-7.1546 0-12.389-6.3138-12.389-13.299 0-7.1501 5.6171-12.01 12.442-12.01 4.1323 0 7.2148 1.5079 9.8018 4.7479l-1.1544 1.1737c-1.6533-2.2342-4.1302-4.1342-6.9382-4.1342-5.8906 0-8.6442 5.9217-8.6442 11.231l0.22027 2.6808h15.801c0.5501 0 1.3768-0.2223 1.3768 0.50271 0 6.0335-5.1185 9.1066-10.516 9.1066zm-96.057-0.44697v-1.1179c4.5132-0.66914 4.1825-1.9559 4.1825-6.2002v-7.4875c0-4.3014-3.1915-8.2684-7.5428-8.2684-4.2935 0-4.5689 4.471-4.5689 7.7657v15.253c-1.3781-0.05496-2.8631-0.16828-4.2961-0.22401-1.5416 0.05573-3.0267 0.16905-4.57 0.22401v-1.0627c4.5155-0.66914 4.1846-1.9559 4.1846-6.2002v-9.5556c0-4.9147 2.0399-7.9876 7.5991-7.9876 3.6885 0 7.2127 2.1794 9.1941 5.2511l1.158-5.2512 7.656 2.0113v1.2857c-0.71529-0.057188-1.4316-0.1688-2.0907-0.1688-2.0372 0-2.0371 2.2356-2.0371 3.7435v17.99c-1.3784-0.11055-2.8649-0.16618-4.2955-0.27922-1.543 0.11304-3.0288 0.16867-4.5694 0.27922zm-54.449-0.839c6.4992 0 7.9849-6.2556 7.9849-11.621 0-4.9725-1.4859-11.116-7.4892-11.116-6.4404 0-7.9828 6.1433-7.9828 11.452 0 4.8609 1.4843 11.285 7.4871 11.285zm150.56 0c3.4712 0 5.3438-2.2355 5.3438-5.6975 0-1.3972-1.8178-1.1179-2.699-1.1179h-9.0842c0.66146 3.631 2.3131 6.8155 6.4394 6.8155z" fill="#fff"/></g></svg>
