<svg xmlns="http://www.w3.org/2000/svg" xmlns:xlink="http://www.w3.org/1999/xlink" viewBox="0 0 256 256" width="256" height="256"><path fill="white" d="m128 0a128 128 0 0 0 -128 128 128 128 0 0 0 128 128 128 128 0 0 0 128 -128 128 128 0 0 0 -128 -128zm13.69 36.939c9.76 0.147 19.48 3.543 23.11 10.145 5.79 10.437 0.57 25.017-15.81 29.035-3.26 0.799-6.72 1.128-10.16 1.127-12.78 0.548-25.43-6.378-26.03-15.457-1.39-9.611 4.86-21.038 19.34-23.912 3.04-0.675 6.29-0.986 9.55-0.938zm-1.71 48.596c2.62 0.047 5.23 0.244 7.84 0.625 9.45 1.936 9.03 10.036 8.4 15.52-2.02 20.36-5.19 40.66-7.71 60.99l-5.1 38.73c7.14-0.88 18.96-8.55 23.25-2.12-2.57 5.72-12.38 7.55-19.35 10.12-13.8 3.91-29.25 7.29-44.21 4.97-10.22-1.81-11.597-10.15-10.27-16.24 4.142-32.72 8.14-65.45 12.22-98.171-6.443 1.111-20.463 8.231-20.898-0.033 5.319-5.036 14.74-6.768 22.598-9.272 10.53-2.699 21.88-5.321 33.23-5.119z"/></svg>
