<svg xmlns="http://www.w3.org/2000/svg" height="111.2" width="286.14" viewBox="0 0 286.13751 111.2"><g transform="matrix(1.25,0,0,-1.25,0,111.2)"><g fill="#fff" transform="scale(.1)"><path d="m2229.4 797.83c0.82-7.129 2.32-11.277 5.64-15.254 3.97-4.805 10.6-7.781 17.07-7.781 12.12 0 22.39 10.105 22.39 22.039 0 6.144-2.83 11.945-7.64 15.93-3.95 3.3-7.95 5.125-17.07 7.468-11.44 2.805-16.25 5.137-20.74 9.61-5.13 4.972-7.76 11.945-7.76 19.719 0 17.089 13.26 29.863 31.15 29.863 17.24 0 30.68-13.106 30.68-30.012h-11.61c-0.83 11.934-8.95 20.07-20.06 20.07-10.61 0-19.08-8.632-19.08-19.57 0-4.98 2-9.953 5.31-12.617 2.99-2.481 7.96-4.797 16.42-7.129 13.1-3.645 15.58-4.648 20.56-8.781 6.8-5.809 10.95-14.774 10.95-24.051 0-17.902-15.1-32.492-33.66-32.492-19.58 0-33.5 13.261-34.33 32.988h11.78"/><path d="m2101.8 814.09-21.22 50.742-21.73-50.742h42.95zm-27.54 63.34h12.46l47.43-110.61h-12.11l-15.94 37.313h-51.39l-16.27-37.313h-11.45l47.27 110.61"/><path d="m2146.9 877.43h60.5v-9.954h-49.4v-39.792h47.76v-9.942h-47.76v-40.961h49.4v-9.957h-60.5v110.61"/><path d="m2122.8 716.93h-96.64v18.34h117.74v-18.34l-83.5-185.64h-21.4l83.8 185.64"/><path d="m2265.3 661.26c0 18.035-3.97 33.015-10.69 41.902-8.27 10.391-22.02 17.434-34.57 17.434-14.68 0-30.6-9.485-37.93-22.942-4.27-7.656-7.33-22.636-7.33-36.394v-52.91c0-21.719 3.06-34.875 10.09-44.336 9.18-12.231 20.49-18.047 35.17-18.047 16.53 0 30.59 8.25 38.54 23.242 4.58 7.949 6.72 21.394 6.72 39.141v52.91zm-111.01 4.578c0 21.406 5.2 37.012 17.44 50.793 12.22 14.355 29.96 22.305 48.31 22.305 37.93 0 65.75-30.891 65.75-73.098v-60.848c0-23.847-4.28-39.152-14.99-52.609-12.83-16.199-30.28-24.754-50.76-24.754-23.24 0-43.72 11.609-55.97 32.09-6.71 11.64-9.78 25.398-9.78 45.273v60.848"/><path d="m67.074 546.21c0-159.17 128.14-288.32 287.32-288.32 155.17 0 285.33 129.15 285.33 285.32s-129.15 286.32-286.33 286.32c-155.18 0-286.32-130.14-286.32-283.32zm639.72-2c0.01-190.21-159.17-346.39-352.39-346.39-197.22 0-354.4 155.18-354.4 349.4 0 186.21 161.18 342.38 353.4 342.38 194.22 0 353.4-155.18 353.4-345.39"/><path d="m1404 385.03c-63.06-116.13-180.19-187.21-307.34-187.21-194.22 0-349.39 153.16-349.39 345.39 0 193.21 154.18 346.39 348.39 346.39 82.09 0 158.18-27.032 222.25-80.09 43.05-36.043 68.08-67.078 83.1-103.11h-74.1c-51.05 76.082-139.15 123.13-232.25 123.13-150.17 0-280.32-133.15-280.32-287.32 0-151.16 131.15-284.32 281.32-284.32 58.07 0 122.13 22.019 170.19 59.062 23.03 18.02 40.05 36.043 64.07 68.078h74.08"/><path d="m1918.1 800.01-256.63-308.61h255.3l1.33 308.61zm-307.8-368.73-185.51-221.44h-75.09l562.45 668.34h73.07l0.2-668.34h-70.08l2.31 221.44h-307.35"/><path d="m38.789 57.824c0-26.418 21.27-47.852 47.691-47.852 25.754 0 47.36 21.434 47.36 47.352 0 25.93-21.438 47.531-47.528 47.531-25.758 0-47.523-21.601-47.523-47.031zm106.18-0.332c0-31.574-26.42-57.492-58.49-57.492-32.734 0-58.824 25.754-58.824 57.988 0 30.91 26.754 56.836 58.656 56.836 32.238 0 58.66-25.762 58.66-57.332"/><path d="m194.77 56.66c9.968 0 15.785 1.164 20.769 4.3281 5.985 3.8164 9.641 10.965 9.641 18.602 0 9.1407-4.821 16.789-12.957 20.441-5.656 2.489-8.481 2.821-22.106 2.821h-16.121v-46.192h20.774zm-31.907 56.164h30.911c13.793 0 21.601-1.828 28.746-6.476 8.64-5.653 13.793-15.625 13.793-26.758 0-10.305-4.321-19.441-11.797-25.254-6.977-5.3203-15.621-7.6445-27.914-7.6445h-22.606v-44.699h-11.133v110.83"/><path d="m252.22 112.82h60.652v-9.972h-49.52v-39.872h47.856v-9.9727h-47.856v-41.043h49.52v-9.9726h-60.652v110.83"/><path d="m332.61 112.82h14.953l62.153-92.051v92.051h11.133v-110.83h-11.133l-65.973 97.539v-97.539h-11.133v110.83"/><path d="m589.11 31.074c-10.47-19.277-29.91-31.074-51.01-31.074-32.239 0-57.993 25.422-57.993 57.324 0 32.07 25.586 57.5 57.825 57.5 13.625 0 26.25-4.492 36.883-13.301 7.152-5.9761 11.308-11.132 13.8-17.109h-12.297c-8.472 12.629-23.101 20.441-38.55 20.441-24.922 0-46.528-22.101-46.528-47.695 0-25.09 21.77-47.188 46.692-47.188 9.636 0 20.273 3.6484 28.254 9.8046 3.816 2.9883 6.636 5.9766 10.632 11.297h12.293"/><path d="m608.67 57.824c0-26.418 21.269-47.852 47.683-47.852 25.754 0 47.368 21.434 47.368 47.352 0 25.93-21.438 47.531-47.532 47.531-25.753 0-47.519-21.601-47.519-47.031zm106.18-0.332c0.01-31.574-26.42-57.492-58.49-57.492-32.734 0-58.816 25.754-58.816 57.988 0 30.91 26.746 56.836 58.652 56.836 32.239 0 58.664-25.762 58.664-57.332"/><path d="m732.74 112.82h14.961l62.141-92.051v92.051h11.133v-110.83h-11.133l-65.965 97.539v-97.539h-11.137v110.83"/><path d="m860.32 102.85h-25.425v9.972h61.98v-9.972h-25.422v-100.86h-11.133v100.86"/><path d="m910.8 112.82h28.254c11.297 0 19.937-1.164 25.254-3.156 13.457-5.477 21.765-17.949 21.765-32.734 0-18.445-13.625-32.402-32.898-33.562l31.238-41.379h-13.789l-37.727 50.188c16.957 0 20.278 0.332 25.598 2.3242 10.137 3.6524 16.445 12.461 16.445 22.93 0 8.6406-4.648 17.117-11.961 21.27-5.312 2.9879-11.464 4.1489-21.601 4.1489h-19.445v-100.86h-11.133v110.83"/><path d="m1008.5 57.824c0-26.418 21.27-47.852 47.68-47.852 25.76 0 47.37 21.434 47.37 47.352 0 25.93-21.44 47.531-47.53 47.531-25.76 0-47.52-21.601-47.52-47.031zm106.18-0.332c-0.1-31.574-26.5-57.492-58.5-57.492-32.73 0-58.814 25.754-58.814 57.988 0 30.91 26.744 56.836 58.654 56.836 32.23 0 58.66-25.762 58.66-57.332"/><path d="m1132.5 112.82h11.13v-100.86h45.86v-9.9726h-56.99v110.83"/><path d="m1309.8 49.348-21.26 50.847-21.77-50.847h43.03zm-27.57 63.476h12.46l47.52-110.83h-12.13l-15.95 37.395h-51.51l-16.29-37.395h-11.47l47.37 110.83"/><path d="m1354.9 112.82h28.25c11.3 0 19.94-1.164 25.26-3.156 13.45-5.477 21.76-17.949 21.76-32.734 0-18.445-13.62-32.402-32.9-33.562l31.24-41.379h-13.78l-37.73 50.188c16.95 0 20.27 0.332 25.6 2.3242 10.13 3.6524 16.44 12.461 16.44 22.93 0 8.6406-4.65 17.117-11.96 21.27-5.31 2.9879-11.47 4.1489-21.6 4.1489h-19.45v-100.86h-11.13v110.83"/><path d="m1550.6 31.074c-10.4-19.277-29.9-31.074-51-31.074-32.24 0-57.99 25.422-57.99 57.324 0 32.07 25.59 57.5 57.82 57.5 13.63 0 26.25-4.492 36.89-13.301 7.15-5.9761 11.31-11.132 13.8-17.109h-12.3c-8.47 12.629-23.1 20.441-38.55 20.441-24.92 0-46.53-22.101-46.53-47.695 0-25.09 21.77-47.188 46.69-47.188 9.64 0 20.28 3.6484 28.26 9.8046 3.81 2.9883 6.64 5.9766 10.63 11.297h12.29"/><path d="m1567.4 112.82h11.14v-48.847h57.33v48.847h11.13v-110.83h-11.13v52.012h-57.33v-52.012h-11.14v110.83"/><path d="m1670.8 1.9922h11.133v110.83h-11.133v-110.83z"/><path d="m1721.3 102.85h-25.43v9.972h61.98v-9.972h-25.42v-100.86h-11.13v100.86"/><path d="m1771.8 112.82h60.65v-9.972h-49.52v-39.872h47.86v-9.9727h-47.86v-41.043h49.52v-9.9726h-60.65v110.83"/><path d="m1955.1 31.074c-10.5-19.277-29.9-31.074-51.1-31.074-32.23 0-57.99 25.422-57.99 57.324 0 32.07 25.59 57.5 57.83 57.5 13.62 0 26.25-4.492 36.88-13.301 7.15-5.9761 11.31-11.132 13.8-17.109h-12.29c-8.48 12.629-23.11 20.441-38.56 20.441-24.92 0-46.52-22.101-46.52-47.695 0-25.09 21.76-47.188 46.69-47.188 9.64 0 20.27 3.6484 28.25 9.8046 3.82 2.9883 6.64 5.9766 10.63 11.297h12.3"/><path d="m1986.9 102.85h-25.43v9.972h61.99v-9.972h-25.42v-100.86h-11.14v100.86"/><path d="m2047.4 112.82v-69.121c0-20.441 10.14-32.902 26.59-32.902s26.59 12.461 26.59 32.902v69.121h11.13v-69.121c0-12.961-2.66-22.266-8.31-29.75-6.7-8.8006-17.6-13.949-29.4-13.949s-22.77 5.1484-29.41 13.953c-5.65 7.4844-8.31 16.789-8.31 29.75v69.121h11.13"/><path d="m2134.6 112.82h28.25c11.3 0 19.94-1.164 25.26-3.156 13.45-5.477 21.76-17.949 21.76-32.734 0-18.445-13.62-32.402-32.9-33.562l31.24-41.379h-13.79l-37.72 50.188c16.95 0 20.27 0.332 25.6 2.3242 10.13 3.6524 16.44 12.461 16.44 22.93 0 8.6406-4.65 17.117-11.96 21.27-5.31 2.9879-11.47 4.1489-21.6 4.1489h-19.45v-100.86h-11.13v110.83"/><path d="m2228.4 112.82h60.65v-9.972h-49.52v-39.872h47.86v-9.9727h-47.86v-41.043h49.52v-9.9726h-60.65v110.83"/><path d="m2021.4 423.71h264.08v67.891h-264.08v-67.891z"/></g></g></svg>
