<?xml version="1.0" encoding="UTF-8" standalone="no"?>
<!-- Created with Inkscape (http://www.inkscape.org/) -->

<svg
   xmlns:dc="http://purl.org/dc/elements/1.1/"
   xmlns:cc="http://creativecommons.org/ns#"
   xmlns:rdf="http://www.w3.org/1999/02/22-rdf-syntax-ns#"
   xmlns:svg="http://www.w3.org/2000/svg"
   xmlns="http://www.w3.org/2000/svg"
   xmlns:sodipodi="http://sodipodi.sourceforge.net/DTD/sodipodi-0.dtd"
   xmlns:inkscape="http://www.inkscape.org/namespaces/inkscape"
   width="256"
   height="256"
   viewBox="0 0 256 256"
   id="svg2"
   version="1.1"
   inkscape:version="0.91 r13725"
   sodipodi:docname="buttons.svg"
   inkscape:export-filename="/home/markus/Desktop/play.png"
   inkscape:export-xdpi="90"
   inkscape:export-ydpi="90">
  <defs
     id="defs" />
  <sodipodi:namedview
     id="base"
     pagecolor="#151e26"
     bordercolor="#666666"
     borderopacity="1.0"
     inkscape:pageopacity="0"
     inkscape:pageshadow="2"
     inkscape:zoom="0.70710678"
     inkscape:cx="462.3416"
     inkscape:cy="195.26744"
     inkscape:document-units="px"
     inkscape:current-layer="layer1"
     showgrid="true"
     units="px"
     inkscape:window-width="2880"
     inkscape:window-height="1555"
     inkscape:window-x="0"
     inkscape:window-y="41"
     inkscape:window-maximized="1"
     inkscape:snap-bbox="true"
     inkscape:bbox-nodes="true"
     inkscape:object-paths="true"
     inkscape:object-nodes="true"
     inkscape:snap-smooth-nodes="true"
     inkscape:snap-object-midpoints="true"
     inkscape:snap-center="true"
     inkscape:snap-others="false"
     showguides="true"
     inkscape:guide-bbox="true"
     inkscape:snap-global="true">
    <inkscape:grid
       type="xygrid"
       id="grid1"
       empspacing="8"
       visible="true" />
    <sodipodi:guide
       position="224,0"
       orientation="0,1"
       id="guide5021" />
    <sodipodi:guide
       position="656,256"
       orientation="0,1"
       id="guide5023" />
    <sodipodi:guide
       position="256,320"
       orientation="1,0"
       id="guide5025" />
    <sodipodi:guide
       position="512,296"
       orientation="1,0"
       id="guide5027" />
    <sodipodi:guide
       position="768,216"
       orientation="1,0"
       id="guide5029" />
    <sodipodi:guide
       position="1024,192"
       orientation="1,0"
       id="guide5031" />
    <sodipodi:guide
       position="1000,512"
       orientation="0,1"
       id="guide5033" />
    <sodipodi:guide
       position="976,-256"
       orientation="0,1"
       id="guide4157" />
  </sodipodi:namedview>
  <metadata
     id="metadata">
    <rdf:RDF>
      <cc:Work
         rdf:about="">
        <dc:format>image/svg+xml</dc:format>
        <dc:type
           rdf:resource="http://purl.org/dc/dcmitype/StillImage" />
        <dc:title></dc:title>
      </cc:Work>
    </rdf:RDF>
  </metadata>
  <g
     inkscape:label="Ebene 1"
     inkscape:groupmode="layer"
     id="layer1"
     style="display:inline">
    <path
       style="fill:#ffffff;fill-rule:evenodd;stroke:#999999;stroke-width:2;stroke-linecap:round;stroke-linejoin:round;stroke-miterlimit:4;stroke-dasharray:none;stroke-opacity:1"
       d="m 103.29412,80 0,104 73.41176,-48.94118 z"
       id="path4330"
       inkscape:connector-curvature="0" />
    <path
       style="fill:#ffffff;fill-opacity:1;stroke:#999999;stroke-width:2;stroke-miterlimit:4;stroke-dasharray:none"
       d="m 370.55242,59.511759 c -0.063,6.58e-4 -0.12586,0.0042 -0.18881,0.0052 -7.61584,0.0092 -13.11025,1.180515 -19.67812,4.124443 -9.16484,4.10798 -16.12866,11.287548 -19.38526,19.984464 -2.31151,6.173056 -2.66771,13.944644 -1.03784,22.643964 1.03836,5.54224 1.93602,7.80006 4.35693,10.95591 3.58464,4.67289 10.42581,7.7163 16.23958,7.22516 10.30074,-0.87019 18.00149,-9.10879 18.02821,-19.287 0.0166,-6.30686 -2.97308,-12.16077 -8.13842,-15.935164 -1.31002,-0.957251 -5.27841,-2.783012 -6.08325,-2.798862 -0.81656,-0.01604 -4.44929,-1.750992 -6.01777,-2.874011 -1.56231,-1.118627 -2.85291,-3.18791 -2.89712,-4.62153 -8.2e-4,-0.03467 -0.003,-0.06919 -0.005,-0.104037 0.0164,-1.256678 1.18678,-3.316003 2.86565,-5.036418 1.7278,-1.770559 5.3035,-3.613632 8.96049,-4.618962 2.95227,-0.811602 7.79505,-0.817642 10.36825,-0.01288 2.63415,0.823851 6.80214,3.245567 9.7575,5.669658 10.57791,8.676372 16.89205,20.867886 17.5825,33.949266 0.72724,13.77825 -5.06953,33.30111 -14.36167,48.37066 -6.63673,10.76309 -17.61411,20.48918 -37.80718,33.4971 -3.69324,2.37912 -7.57902,5.22642 -8.28548,6.07106 -0.67192,0.80336 -0.74169,1.54726 -0.19588,2.09305 1.3228,1.32282 7.27758,-0.49768 16.1548,-4.94007 14.17216,-7.09211 25.85031,-15.40413 34.77709,-24.75243 10.62719,-11.12897 18.49582,-21.90904 23.45576,-32.1343 3.02127,-6.22867 4.443,-10.49813 5.99784,-18.0115 0.36454,-1.76176 0.56803,-5.19836 0.61204,-8.83782 0.0572,-1.63116 0.0454,-3.24965 -0.0371,-4.85144 -0.0822,-2.9376 -0.27407,-5.56527 -0.57801,-7.0267 -2.46852,-11.869328 -8.17039,-21.904473 -16.32693,-28.734295 -3.37127,-2.822912 -6.04188,-4.573852 -9.2726,-6.080052 -6.46433,-3.013738 -9.14772,-3.673692 -16.23958,-3.884885 -0.87327,-0.03704 -1.74778,-0.05653 -2.62226,-0.04752 z m 64.72008,13.438793 c -2.7061,-0.06499 -5.47099,0.507529 -7.97786,1.724405 -2.14436,1.040909 -5.61897,4.624322 -6.76595,6.977896 -0.70687,1.450421 -0.89485,2.033749 -0.94345,3.947185 -0.16572,1.206072 -0.16684,2.42949 -6.6e-4,3.641478 0.0483,1.932834 0.24465,2.482874 1.04043,4.109034 1.79322,3.6644 5.19659,6.57937 9.23344,7.90785 1.04895,0.3452 2.52734,0.52373 4.0936,0.55233 0.79927,0.0389 1.59994,0.0146 2.39362,-0.0719 1.59478,-0.12495 3.10755,-0.39946 4.18159,-0.81757 4.03163,-1.56941 7.6577,-5.3091 8.96563,-9.24692 0.86553,-2.605859 0.58829,-7.479021 -0.56645,-9.949519 -1.00529,-2.150824 -4.03699,-5.507853 -6.02867,-6.675403 -2.27155,-1.331615 -4.91917,-2.033845 -7.62528,-2.098827 z m -0.7315,38.242598 c -5.72215,0.0402 -11.15997,3.15447 -13.73743,8.36963 -0.93696,1.8959 -1.16147,2.43165 -1.21576,4.23619 -0.20277,1.31522 -0.20733,2.66436 0.0118,4.01269 0.0688,1.59249 0.29374,2.20479 1.02244,3.75066 1.98426,4.20946 6.50262,7.6703 10.98737,8.41521 l 0.002,0 c 2.51407,0.4176 3.83945,0.42057 6.06464,0.0142 5.39691,-0.98574 10.07492,-4.95305 11.76449,-9.97777 0.71802,-2.13835 0.71695,-6.46428 -0.003,-8.59697 -1.46195,-4.32939 -4.60646,-7.48415 -9.1737,-9.20324 -1.87504,-0.70576 -3.81431,-1.03393 -5.72169,-1.02054 z"
       id="path5015"
       inkscape:connector-curvature="0" />
    <path
       style="color:#000000;clip-rule:nonzero;display:inline;overflow:visible;visibility:visible;opacity:1;isolation:auto;mix-blend-mode:normal;color-interpolation:sRGB;color-interpolation-filters:linearRGB;solid-color:#000000;solid-opacity:1;fill:#ffffff;fill-opacity:1;fill-rule:nonzero;stroke:#999999;stroke-width:2;stroke-linecap:round;stroke-linejoin:round;stroke-miterlimit:4;stroke-dasharray:none;stroke-dashoffset:0;stroke-opacity:1;marker:none;color-rendering:auto;image-rendering:auto;shape-rendering:auto;text-rendering:auto;enable-background:accumulate"
       d="m 677.19722,49.763465 c -0.94441,0.03351 -1.87632,0.426795 -2.57416,1.171919 l -30.23101,32.278939 a 3.686943,25.798338 43.129815 0 0 -4.83782,5.387599 l 1.59396,1.606228 c 1.1622,1.17182 2.2678,2.3178 3.34135,3.44936 a 3.686943,25.798338 43.129815 0 0 5.31439,-5.434262 l 30.23101,-32.27894 c 1.39568,-1.49025 1.31304,-3.808004 -0.18594,-5.195569 -0.74949,-0.693784 -1.70736,-1.01878 -2.65178,-0.985274 z m -72.43744,10.522151 c -0.94498,-0.0066 -1.8919,0.345806 -2.62109,1.060651 -1.45836,1.429685 -1.47412,3.747473 -0.0361,5.197364 l 31.14803,31.406729 a 25.802642,3.686328 45.228148 0 0 18.65272,15.43416 7.3939329,7.3509692 0 0 0 0.77982,9.39152 7.3939329,7.3509692 0 0 0 10.45548,0.0736 7.3939329,7.3509692 0 0 0 0.0741,-10.39651 7.3939329,7.3509692 0 0 0 -9.42473,-0.90813 25.802642,3.686328 45.228148 0 0 -15.27166,-18.7561 L 607.36643,61.382159 c -0.71901,-0.724946 -1.66166,-1.089951 -2.60665,-1.096543 z m 25.86433,40.250864 a 3.686943,25.798338 43.129815 0 0 -0.94772,1.86466 7.3939329,7.3509692 0 0 0 -9.40306,1.17372 7.3939329,7.3509692 0 0 0 0.37186,10.38934 7.3939329,7.3509692 0 0 0 10.45006,-0.3697 7.3939329,7.3509692 0 0 0 0.51087,-9.40048 3.686943,25.798338 43.129815 0 0 1.70226,-1.0104 c -0.88996,-0.86058 -1.78579,-1.74166 -2.68427,-2.64714 z m 22.47604,3.17118 c 0.86925,1.12363 1.6727,2.21205 2.3088,3.21066 3.6737,-0.85209 7.66413,0.1647 10.43381,2.95224 l 9.4e-4,0.002 c 0.78952,0.79596 1.42983,1.68647 1.92431,2.63458 2.68049,0.38727 5.17509,0.82523 7.44268,1.30831 4.58895,0.97763 8.26632,2.14986 10.64321,3.34707 1.18845,0.5986 2.04202,1.20755 2.51459,1.69955 0.47246,0.4919 0.53969,0.77107 0.53969,0.95293 0,0.18185 -0.0672,0.46097 -0.53974,0.95296 -0.47256,0.49199 -1.32615,1.10096 -2.51459,1.69955 -2.37689,1.19721 -6.05426,2.36943 -10.64322,3.34707 -3.78851,0.8071 -8.22848,1.48122 -13.10365,2.00643 -2.031,0.80763 -4.2591,1.00112 -6.38305,0.5761 -5.24399,0.38579 -10.85839,0.60659 -16.7248,0.60659 -14.1854,0 -27.03358,-1.23386 -36.2115,-3.18912 -4.58894,-0.97764 -8.26632,-2.14986 -10.64321,-3.34707 -1.18845,-0.59859 -2.04203,-1.20756 -2.5146,-1.69955 -0.47254,-0.49199 -0.53974,-0.77111 -0.53974,-0.95296 0,-0.18186 0.0672,-0.46098 0.53974,-0.95298 0.47257,-0.49198 1.32615,-1.10096 2.5146,-1.69955 2.37689,-1.19721 6.05427,-2.36943 10.64321,-3.34706 3.59249,-0.76534 7.76103,-1.41572 12.33827,-1.92928 -0.7512,-2.41096 -0.66031,-5.0359 0.28341,-7.40301 -6.99361,0.74949 -13.32379,1.82068 -18.68521,3.15324 -5.45946,1.35694 -9.92147,2.96618 -13.16863,4.87433 -3.24716,1.90813 -5.55628,4.2812 -5.55628,7.30431 0,3.02309 2.30912,5.39616 5.55628,7.3043 3.24716,1.90814 7.70917,3.51739 13.16863,4.87434 10.91895,2.71386 25.81594,4.36104 42.27503,4.36104 16.4591,0 31.3561,-1.64718 42.27503,-4.36104 5.45946,-1.35695 9.92147,-2.9662 13.16863,-4.87434 3.24718,-1.90814 5.5563,-4.28121 5.5563,-7.3043 0,-3.02311 -2.30912,-5.39618 -5.5563,-7.30431 -3.24716,-1.90815 -7.70917,-3.51739 -13.16863,-4.87433 -7.69101,-1.91158 -17.38085,-3.27828 -28.17492,-3.92854 z m -73.25156,22.53928 0,44.1058 c 0,8.11965 26.48302,14.70194 59.15145,14.70194 32.66846,0 59.15147,-6.58229 59.15147,-14.70194 l 0,-44.1058 c 0,8.11965 -26.48301,14.70192 -59.15147,14.70192 -32.66843,0 -59.15145,-6.58227 -59.15145,-14.70192 z m 11.09089,14.70192 c 2.04813,0 3.69698,1.63927 3.69698,3.67549 l 0,22.0529 c 0,2.03622 -1.64885,3.67549 -3.69698,3.67549 -2.04812,0 -3.69697,-1.63927 -3.69697,-3.67549 l 0,-22.0529 c 0,-2.03622 1.64885,-3.67549 3.69697,-3.67549 z m 96.12114,0 c 2.04811,0 3.69696,1.63927 3.69696,3.67549 l 0,22.0529 c 0,2.03622 -1.64885,3.67549 -3.69696,3.67549 -2.04812,0 -3.69697,-1.63927 -3.69697,-3.67549 l 0,-22.0529 c 0,-2.03622 1.64885,-3.67549 3.69697,-3.67549 z m -66.5454,7.35097 c 2.04812,0 3.69696,1.63927 3.69696,3.6755 l 0,22.0529 c 0,2.03622 -1.64884,3.67549 -3.69696,3.67549 -2.04812,0 -3.69697,-1.63927 -3.69697,-3.67549 l 0,-22.0529 c 0,-2.03623 1.64885,-3.6755 3.69697,-3.6755 z m 36.96966,0 c 2.04813,0 3.69698,1.63927 3.69698,3.6755 l 0,22.0529 c 0,2.03622 -1.64885,3.67549 -3.69698,3.67549 -2.04812,0 -3.69697,-1.63927 -3.69697,-3.67549 l 0,-22.0529 c 0,-2.03623 1.64885,-3.6755 3.69697,-3.6755 z m -77.45037,27.56793 c -1.26421,1.34093 -2.03441,2.85755 -2.03441,4.59256 0,3.0231 2.30912,5.39617 5.55628,7.30431 3.24717,1.90813 7.70917,3.51738 13.16864,4.87433 10.91894,2.71387 25.81594,4.36104 42.27502,4.36104 16.45911,0 31.3561,-1.64717 42.27503,-4.36104 5.45947,-1.35695 9.92147,-2.9662 13.16864,-4.87433 3.24717,-1.90814 5.55629,-4.28121 5.55629,-7.30431 0,-1.71336 -0.75142,-3.21373 -1.98748,-4.54231 -1.43358,5.27656 -14.15901,9.95517 -33.32506,12.25221 -0.62608,0.0774 -1.24873,0.15428 -1.89181,0.22614 -0.62486,0.0674 -1.25435,0.13192 -1.88819,0.19382 -1.20948,0.12202 -2.44178,0.23346 -3.70238,0.3356 -0.45133,0.0372 -0.90447,0.0732 -1.35929,0.10771 -1.39342,0.10336 -2.81396,0.19123 -4.26017,0.2692 -0.41058,0.0238 -0.82218,0.0466 -1.23473,0.0682 -1.46598,0.0708 -2.95842,0.12534 -4.46958,0.16869 -0.408,0.0142 -0.8166,0.0273 -1.22569,0.0395 -1.85878,0.0436 -3.74243,0.07 -5.65558,0.07 -1.53763,-9.3e-4 -3.07437,-0.0187 -4.60676,-0.0502 -1.8444,-0.0353 -3.66363,-0.0876 -5.44617,-0.16331 -1.96902,-0.0836 -3.88986,-0.19318 -5.76928,-0.32304 -1.73986,-0.12022 -3.42888,-0.26275 -5.07972,-0.41996 -0.60027,-0.0587 -1.19666,-0.11959 -1.78891,-0.18305 -0.87601,-0.0923 -1.74632,-0.18487 -2.59221,-0.28715 -19.42753,-2.29045 -32.32409,-7.02084 -33.68248,-12.35451 z"
       id="path5035"
       inkscape:connector-curvature="0" />
    <path
       style="color:#000000;clip-rule:nonzero;display:inline;overflow:visible;visibility:visible;opacity:1;isolation:auto;mix-blend-mode:normal;color-interpolation:sRGB;color-interpolation-filters:linearRGB;solid-color:#000000;solid-opacity:1;fill:#ffffff;fill-opacity:1;fill-rule:nonzero;stroke:#999999;stroke-width:2;stroke-linecap:round;stroke-linejoin:round;stroke-miterlimit:4;stroke-dasharray:none;stroke-dashoffset:0;stroke-opacity:1;marker:none;color-rendering:auto;image-rendering:auto;shape-rendering:auto;text-rendering:auto;enable-background:accumulate"
       d="m 895,57.043478 c -1.83061,0 -3.30435,1.894577 -3.30435,4.248217 l 0,28.795265 c -3.66122,0 -6.6087,2.94748 -6.6087,6.60869 l 0,7.89785 c -4.60936,1.25269 -8.36417,3.34141 -10.67942,5.94072 -32.76425,2.00491 -55.40106,8.5011 -55.40753,15.90056 0,9.1247 34.02636,16.52174 76,16.52174 41.97364,0 76,-7.39704 76,-16.52174 -0.0315,-7.39171 -22.64374,-13.87946 -55.36881,-15.88604 -2.32216,-2.60648 -6.09169,-4.69922 -10.71814,-5.9504 l 0,-7.90269 c 0,-3.66121 -2.94748,-6.60869 -6.6087,-6.60869 l 0,-28.795265 c 0,-2.35364 -1.47374,-4.248217 -3.30435,-4.248217 z m -65.72232,83.256032 c -6.70759,2.51103 -10.25253,5.36201 -10.27768,8.26571 0.0255,8.84269 32.0735,16.11333 72.71178,16.49592 -0.003,0.0885 -0.0161,0.17177 -0.0161,0.26139 l 0,32.13756 c 0,2.87667 1.47374,5.19208 3.30434,5.19208 1.83061,0 3.30435,-2.31541 3.30435,-5.19208 l 0,-32.13756 c 0,-0.093 -0.0146,-0.17935 -0.0178,-0.27107 40.62173,-0.38223 72.6641,-7.64717 72.71343,-16.48624 -0.033,-2.90042 -3.57763,-5.74785 -10.27768,-8.25604 -13.56464,5.10356 -38.60888,8.24962 -65.72232,8.25604 -27.12261,-0.008 -52.16897,-3.15843 -65.72232,-8.26571 z"
       id="path5106"
       inkscape:connector-curvature="0"
       sodipodi:nodetypes="sscscccscccscsscccsssssccccc" />
    <rect
       ry="0"
       y="256"
       x="512"
       height="256"
       width="256"
       id="rect9463-2"
       style="color:#000000;clip-rule:nonzero;display:inline;overflow:visible;visibility:visible;opacity:0.00100002;isolation:auto;mix-blend-mode:normal;color-interpolation:sRGB;color-interpolation-filters:linearRGB;solid-color:#000000;solid-opacity:1;fill:#e6bbff;fill-opacity:0.99607843;fill-rule:nonzero;stroke:none;stroke-width:2;stroke-linecap:round;stroke-linejoin:round;stroke-miterlimit:4;stroke-dasharray:none;stroke-dashoffset:0;stroke-opacity:1;marker:none;color-rendering:auto;image-rendering:auto;shape-rendering:auto;text-rendering:auto;enable-background:accumulate"
       inkscape:export-filename="/home/markus/DeusO/OCA.js/micro/images/buttons/arpeggio.png"
       inkscape:export-xdpi="90"
       inkscape:export-ydpi="90" />
    <rect
       style="color:#000000;clip-rule:nonzero;display:inline;overflow:visible;visibility:visible;opacity:0.00100002;isolation:auto;mix-blend-mode:normal;color-interpolation:sRGB;color-interpolation-filters:linearRGB;solid-color:#000000;solid-opacity:1;fill:#e6bbff;fill-opacity:0.99607843;fill-rule:nonzero;stroke:none;stroke-width:2;stroke-linecap:round;stroke-linejoin:round;stroke-miterlimit:4;stroke-dasharray:none;stroke-dashoffset:0;stroke-opacity:1;marker:none;color-rendering:auto;image-rendering:auto;shape-rendering:auto;text-rendering:auto;enable-background:accumulate"
       id="rect9461-6"
       width="256"
       height="256"
       x="256"
       y="256"
       ry="0"
       inkscape:export-filename="/home/markus/DeusO/OCA.js/micro/images/buttons/pad.png"
       inkscape:export-xdpi="90"
       inkscape:export-ydpi="90" />
    <path
       style="color:#000000;clip-rule:nonzero;display:inline;overflow:visible;visibility:visible;opacity:1;isolation:auto;mix-blend-mode:normal;color-interpolation:sRGB;color-interpolation-filters:linearRGB;solid-color:#000000;solid-opacity:1;fill:#ffffff;fill-opacity:1;fill-rule:nonzero;stroke:#999999;stroke-width:2;stroke-linecap:round;stroke-linejoin:round;stroke-miterlimit:4;stroke-dasharray:none;stroke-dashoffset:0;stroke-opacity:1;marker:none;color-rendering:auto;image-rendering:auto;shape-rendering:auto;text-rendering:auto;enable-background:accumulate"
       d="m 316,312 c -1.108,0 -2,1.80878 -2,4.05556 l 0,8.11111 c 0,2.24678 0.892,4.05555 2,4.05555 l 140,0 c 1.108,0 2,-1.80877 2,-4.05555 l 0,-8.11111 C 458,313.80878 457.108,312 456,312 Z m 0,48.66667 c -1.108,0 -2,1.80878 -2,4.05555 l 0,8.11111 c 0,2.24678 0.892,4.05556 2,4.05556 l 68,0 c 1.108,0 2,-1.80878 2,-4.05556 l 0,-8.11111 c 0,-2.24677 -0.892,-4.05555 -2,-4.05555 z m 72,32.44444 c -1.108,0 -2,1.80878 -2,4.05556 l 0,8.11111 c 0,2.24678 0.892,4.05556 2,4.05556 l 68,0 c 1.108,0 2,-1.80878 2,-4.05556 l 0,-8.11111 c 0,-2.24678 -0.892,-4.05556 -2,-4.05556 z m -72,48.66667 c -1.108,0 -2,1.80878 -2,4.05556 l 0,8.11111 c 0,2.24677 0.892,4.05555 2,4.05555 l 140,0 c 1.108,0 2,-1.80878 2,-4.05555 l 0,-8.11111 c 0,-2.24678 -0.892,-4.05556 -2,-4.05556 z"
       id="rect4159"
       inkscape:connector-curvature="0"
       sodipodi:nodetypes="ssssssssssssssssssssssssssssssssssss" />
    <path
       style="color:#000000;clip-rule:nonzero;display:inline;overflow:visible;visibility:visible;opacity:1;isolation:auto;mix-blend-mode:normal;color-interpolation:sRGB;color-interpolation-filters:linearRGB;solid-color:#000000;solid-opacity:1;fill:#ffffff;fill-opacity:1;fill-rule:nonzero;stroke:#999999;stroke-width:2;stroke-linecap:round;stroke-linejoin:round;stroke-miterlimit:4;stroke-dasharray:none;stroke-dashoffset:0;stroke-opacity:1;marker:none;color-rendering:auto;image-rendering:auto;shape-rendering:auto;text-rendering:auto;enable-background:accumulate"
       d="m 615.42106,323.85715 c -4.46116,0 -8.05263,3.59986 -8.05263,8.07143 l 0,16.14285 c 0,4.47158 3.59147,8.07143 8.05263,8.07143 l 16.10526,0 c 4.46116,0 8.05263,-3.59985 8.05263,-8.07143 l 0,-16.14285 c 0,-4.47157 -3.59147,-8.07143 -8.05263,-8.07143 z m -32.21053,48.42857 c -4.46116,0 -8.05263,3.59986 -8.05263,8.07143 l 0,16.14285 c 0,4.47158 3.59147,8.07143 8.05263,8.07143 l 16.10526,0 c 4.46116,0 8.05264,-3.59985 8.05264,-8.07143 l 0,-16.14285 c 0,-4.47157 -3.59148,-8.07143 -8.05264,-8.07143 z m 64.42105,0 c -4.46115,0 -8.05263,3.59986 -8.05263,8.07143 l 0,16.14285 c 0,4.47158 3.59148,8.07143 8.05263,8.07143 l 16.10527,0 c 4.46116,0 8.05263,-3.59985 8.05263,-8.07143 l 0,-16.14285 c 0,-4.47157 -3.59147,-8.07143 -8.05263,-8.07143 z M 551,420.71429 c -4.46115,0 -8.05263,3.59986 -8.05263,8.07143 l 0,16.14285 c 0,4.47158 3.59148,8.07143 8.05263,8.07143 l 16.10527,0 c 4.46116,0 8.05263,-3.59985 8.05263,-8.07143 l 0,-16.14285 c 0,-4.47157 -3.59147,-8.07143 -8.05263,-8.07143 z m 161.05264,-48 c -4.46116,0 -8.05263,3.59986 -8.05263,8.07143 l 0,16.14285 c 0,4.47158 3.59147,8.07143 8.05263,8.07143 l 16.10526,0 c 4.46116,0 8.05263,-3.59985 8.05263,-8.07143 l 0,-16.14285 c 0,-4.47157 -3.59147,-8.07143 -8.05263,-8.07143 z m -32.21053,48.85714 c -4.46116,0 -8.05263,3.59986 -8.05263,8.07143 l 0,16.14286 c 0,4.47157 3.59147,8.07142 8.05263,8.07142 l 16.10526,0 c 4.46116,0 8.05264,-3.59985 8.05264,-8.07142 l 0,-16.14286 c 0,-4.47157 -3.59148,-8.07143 -8.05264,-8.07143 z"
       id="rect4183"
       inkscape:connector-curvature="0"
       sodipodi:nodetypes="ssssssssssssssssssssssssssssssssssssssssssssssssssssss" />
    <path
       style="fill:#ffffff;stroke:#999999;stroke-width:2;stroke-miterlimit:4;stroke-dasharray:none"
       d="m 902.20312,315.16797 c -1.43952,0.043 -2.89335,0.43654 -4.22265,1.21094 l -45.20899,26.33789 4.21875,-10.71875 c 1.80235,-4.57994 -0.46063,-9.7815 -5.04101,-11.58203 -4.57948,-1.80245 -9.78025,0.46151 -11.58203,5.04101 l 0,-0.004 c 0,0 -10.21116,25.75602 -13.53516,34.39844 -1.6494,4.28816 -3.05643,8.06544 -3.51758,11.76953 -0.46114,3.70409 0.0758,7.34496 2.25391,11.08399 l 9.57422,16.43554 c 5.1207,8.78918 15.44528,12.71679 24.83398,10.14649 l 0.78516,-0.21484 -1.81836,-29.24219 c -0.57509,-9.24778 6.42197,-17.17741 15.67187,-17.75196 6.7399,-0.41971 12.84932,3.22479 15.85547,8.91993 l 0.76758,1.45507 23.23633,-33.5039 c 2.84631,-4.10368 7.36506,-6.69588 12.29492,-7.13086 l 1.00195,-0.0879 -0.0937,-1.00195 c -0.11835,-1.24466 -0.49716,-2.49184 -1.16992,-3.64649 -2.47735,-4.25187 -7.96082,-5.69817 -12.21289,-3.2207 l -3.08203,1.79492 c 0.36201,-2.01349 0.0906,-4.15277 -1.01758,-6.05469 -1.70333,-2.92344 -4.82418,-4.52819 -7.99219,-4.43359 z m 46.33008,23.26562 c -3.18113,-0.0402 -6.33285,1.45395 -8.28125,4.26368 l -2.42383,3.49609 c -0.54501,-2.29023 -1.8621,-4.40706 -3.94531,-5.85156 -4.48575,-3.1107 -10.68075,-1.9975 -13.79687,2.49609 l -33.71289,48.61133 -0.82617,-13.27539 c -0.33902,-5.45281 -5.05606,-9.61963 -10.50977,-9.2793 -5.45223,0.33826 -9.61667,5.05459 -9.2793,10.50586 l 0,0.002 c 0,0 0,0.002 0,0.002 3.4e-4,0.006 1.81498,31.07914 2.57813,41.46289 0.38682,5.26373 0.75235,9.76755 2.03125,13.71093 1.2789,3.9434 3.52557,7.30735 7.49609,10.06055 l 17.56641,12.1836 c 4.26415,2.95702 9.15431,4.37695 13.99023,4.37695 7.80212,0 15.48668,-3.69658 20.25781,-10.57617 7.65803,-11.04237 28.65121,-41.31527 35.36915,-51.00196 3.11445,-4.48876 1.99397,-10.68309 -2.4961,-13.79687 -2.06815,-1.43432 -4.51206,-1.93921 -6.86133,-1.64649 l 6.90235,-9.95703 c 3.11342,-4.48955 1.99291,-10.68155 -2.4961,-13.79492 -2.06842,-1.43465 -4.51417,-1.93956 -6.86328,-1.64648 l 3.31641,-4.78125 c 3.11376,-4.49004 1.992,-10.68505 -2.49805,-13.79883 -1.68187,-1.16659 -3.6091,-1.74152 -5.51758,-1.76563 z"
       id="path4293"
       inkscape:connector-curvature="0" />
    <path
       style="color:#000000;clip-rule:nonzero;display:inline;overflow:visible;visibility:visible;opacity:1;isolation:auto;mix-blend-mode:normal;color-interpolation:sRGB;color-interpolation-filters:linearRGB;solid-color:#000000;solid-opacity:1;fill:#ffffff;fill-opacity:1;fill-rule:nonzero;stroke:#999999;stroke-width:2;stroke-linecap:round;stroke-linejoin:round;stroke-miterlimit:4;stroke-dasharray:none;stroke-dashoffset:0;stroke-opacity:1;marker:none;color-rendering:auto;image-rendering:auto;shape-rendering:auto;text-rendering:auto;enable-background:accumulate"
       d="m 653.28515,-183.21875 c -3.87948,0.0807 -7.69221,1.83682 -10.29687,5.13281 l -58.50781,74.03711 c -4.63052,5.859548 -3.6408,14.305032 2.21875,18.935548 5.85954,4.630516 14.30307,3.640797 18.93359,-2.21875 l 58.50977,-74.037108 c 4.63051,-5.85955 3.64079,-14.30503 -2.21875,-18.93555 -2.56356,-2.02585 -5.6213,-2.97681 -8.63868,-2.91406 z m -54.82031,28.78711 c -4.36345,-0.0303 -8.3594,2.04782 -10.86328,5.39844 -1.30073,1.74059 -2.1995,3.8235 -2.53711,6.13281 -1.08038,7.38977 4.00086,14.2087 11.39063,15.28906 l 0.24218,0.0352 L 616,-152 l -15.64649,-2.28711 c -0.63506,-0.0928 -1.26532,-0.1402 -1.88867,-0.14453 z m 59.76758,8.60547 -19.30274,24.42578 50.89649,7.4414 c 7.38977,1.08038 14.20869,-4.00085 15.28906,-11.39062 1.08038,-7.38978 -3.99695,-14.20674 -11.38672,-15.28711 l -35.49609,-5.18945 z"
       id="rect4392"
       inkscape:connector-curvature="0" />
    <path
       style="color:#000000;clip-rule:nonzero;display:inline;overflow:visible;visibility:visible;opacity:1;isolation:auto;mix-blend-mode:normal;color-interpolation:sRGB;color-interpolation-filters:linearRGB;solid-color:#000000;solid-opacity:1;fill:#ffffff;fill-opacity:1;fill-rule:nonzero;stroke:#999999;stroke-width:2;stroke-linecap:round;stroke-linejoin:round;stroke-miterlimit:4;stroke-dasharray:none;stroke-dashoffset:0;stroke-opacity:1;marker:none;color-rendering:auto;image-rendering:auto;shape-rendering:auto;text-rendering:auto;enable-background:accumulate"
       d="m 910.20015,-212.57303 c -1.11146,0 -2.00692,1.15154 -2.00692,2.58057 l 0,2.91105 c -2.22298,0 -4.01211,1.78918 -4.01211,4.01211 l 0,4.79467 c -2.79862,0.76058 -5.07905,2.02981 -6.4848,3.60799 -19.893,1.2173 -33.63583,5.16179 -33.63978,9.65442 0,5.54013 20.65906,10.03115 46.14361,10.03115 25.48461,0 46.1436,-4.49102 46.1436,-10.03115 -0.0195,-4.48792 -13.74825,-8.42754 -33.61752,-9.64585 -1.40994,-1.58255 -3.69811,-2.85346 -6.50706,-3.61313 l 0,-4.7981 c 0,-2.22293 -1.7909,-4.01211 -4.01382,-4.01211 l 0,-2.91105 c 0,-1.42903 -0.89374,-2.58057 -2.0052,-2.58057 z m 23.47164,47.53748 c -1.50217,0 -2.81647,0.65951 -3.98129,1.74321 4.62617,1.25688 8.72787,12.41304 10.74178,29.21669 0.0679,0.54891 0.13562,1.09549 0.19864,1.6593 0.0591,0.54784 0.11525,1.10016 0.16952,1.65588 0.10698,1.0604 0.20498,2.13974 0.29453,3.24496 0.0326,0.3957 0.0639,0.79307 0.0942,1.19182 0.0906,1.22167 0.16796,2.46848 0.23631,3.73642 0.0209,0.35997 0.041,0.72053 0.0599,1.08223 0.0621,1.28528 0.10926,2.59304 0.14727,3.91793 0.0125,0.35771 0.0236,0.71671 0.0343,1.07538 0.0382,1.62966 0.0616,3.28001 0.0616,4.95735 -8.2e-4,1.3481 -0.0169,2.696 -0.0445,4.03951 -0.0309,1.61706 -0.0757,3.2113 -0.14213,4.77413 -0.0733,1.72632 -0.17041,3.41062 -0.28426,5.05838 -0.1054,1.52541 -0.23033,3.006552 -0.36816,4.45391 -0.0515,0.526281 -0.10361,1.049294 -0.15925,1.568544 -0.0809,0.768033 -0.16377,1.530707 -0.25344,2.272332 -2.00813,17.032903 -6.15458,28.340814 -10.83082,29.531769 1.17565,1.108385 2.50466,1.782592 4.02581,1.782592 2.65047,0 4.73137,-2.023106 6.40431,-4.870019 1.67294,-2.846925 3.08442,-6.760065 4.27411,-11.546603 2.37936,-9.573077 3.82376,-22.634205 3.82376,-37.064545 0,-14.43037 -1.4444,-27.48977 -3.82376,-37.06283 -1.18969,-4.78654 -2.60117,-8.69968 -4.27411,-11.54661 -1.67294,-2.84692 -3.75384,-4.87173 -6.40431,-4.87173 z m -53.16952,0.002 c -0.49206,0 -0.96403,0.0702 -1.41784,0.20207 a 16.548476,66.084311 0 0 0 -0.005,-0.0188 c -1.18588,0.31801 -2.23892,0.95725 -3.06517,1.70554 -1.17477,1.06392 -2.05763,2.3598 -2.85797,3.85799 -1.60067,2.99638 -2.85259,6.87862 -3.91622,11.58599 -1.46753,6.49498 -2.51122,14.56403 -3.02578,23.52986 0.92958,-0.69227 1.83346,-1.33146 2.69186,-1.87676 -0.69995,-3.25822 0.19826,-6.76568 2.66961,-9.22119 a 3.5073125,3.5073125 0 0 1 0.002,-0.003 c 0.87013,-0.86307 1.8703,-1.51815 2.93502,-1.9898 0.451,-3.24622 0.9724,-6.25576 1.56855,-8.89412 0.29269,-1.2955 0.60664,-2.47926 0.92811,-3.60114 0.38181,-1.09258 0.77181,-2.08883 1.16784,-2.8751 0.52482,-1.04196 1.05842,-1.78951 1.48977,-2.20383 0.43127,-0.41423 0.6762,-0.47433 0.83564,-0.47433 0.15944,0 0.4043,0.06 0.83565,0.47433 0.43135,0.41431 0.96497,1.16188 1.48978,2.20383 1.04964,2.08392 2.07788,5.30919 2.93502,9.33249 0.65461,3.07274 1.20338,6.64981 1.64731,10.55001 0,0 0,0.002 0,0.002 1.1823,2.31555 1.40562,5.00933 0.67639,7.4677 0.29758,4.33114 0.47262,8.92766 0.47262,13.72818 0,12.43692 -1.08207,23.700942 -2.79632,31.747596 -0.85714,4.023309 -1.88538,7.246863 -2.93502,9.330778 -0.52481,1.041963 -1.05843,1.791229 -1.48978,2.205551 -0.43135,0.414295 -0.67621,0.472618 -0.83565,0.472618 -0.15944,0 -0.40428,-0.05832 -0.83564,-0.472618 -0.43133,-0.414322 -0.96496,-1.163588 -1.48977,-2.205551 -0.31659,-0.628545 -0.62986,-1.390892 -0.93838,-2.217537 -0.40266,-1.330988 -0.79605,-2.757939 -1.15757,-4.358016 -1.95823,-8.666647 -3.21929,-20.970961 -3.21929,-34.552481 0,-0.77746 0.0192,-1.5345 0.0274,-2.30315 -0.0552,0.0672 -0.0963,0.12399 -0.1524,0.19179 -1.93463,2.33806 -4.2628,4.91213 -6.82214,7.54818 0.28236,11.838432 1.47731,22.482432 3.32545,30.661944 1.06363,4.707367 2.31555,8.589611 3.91622,11.585988 0.80034,1.498188 1.6832,2.794079 2.85797,3.858 0.49229,0.445842 1.06887,0.848821 1.70211,1.172983 0.0413,0.02522 0.085,0.04435 0.12671,0.06849 0.81769,0.473415 1.70003,0.746599 2.65933,0.746599 2.65047,0 4.73138,-2.024818 6.40432,-4.871731 1.67294,-2.846916 3.08271,-6.758362 4.2724,-11.544891 2.37935,-9.573085 3.82376,-22.634182 3.82376,-37.064542 0,-14.43036 -1.44441,-27.49148 -3.82376,-37.06454 -1.18969,-4.78653 -2.59946,-8.69798 -4.2724,-11.5449 -1.67294,-2.84693 -3.75385,-4.87173 -6.40432,-4.87173 z m 5.63888,1.61992 c 7.11883,0 12.88912,23.21778 12.88912,51.85954 0,28.641732 -5.77029,51.861252 -12.88912,51.861252 l 38.66905,0 c 7.11883,0 12.89083,-23.21952 12.89083,-51.861252 0,-28.64176 -5.772,-51.85954 -12.89083,-51.85954 l -38.66905,0 z m 16.11183,6.48308 19.33452,0 c 1.78523,0 3.2227,1.44417 3.2227,3.23983 0,1.79567 -1.43747,3.24155 -3.2227,3.24155 l -19.33452,0 c -1.78524,0 -3.22271,-1.44588 -3.22271,-3.24155 0,-1.79566 1.43747,-3.23983 3.22271,-3.23983 z m -23.63432,22.28154 c -1.64954,-0.0118 -3.30298,0.60943 -4.57035,1.8665 -2.21396,2.19977 -2.54904,5.6775 -0.79627,8.26396 -3.25732,1.47159 -9.79517,6.79487 -16.44402,13.38913 l -27.53684,27.310808 c -0.63559,0.630386 -0.95486,1.45581 -0.96064,2.284321 -0.006,0.828502 0.30308,1.658708 0.92982,2.298019 1.25345,1.278602 3.28548,1.293305 4.55665,0.03254 l 27.53513,-27.309088 c 6.65683,-6.60494 12.04059,-13.1096 13.53297,-16.35326 2.54806,1.80426 6.01374,1.51688 8.23314,-0.68325 2.53415,-2.51352 2.56358,-6.61873 0.0651,-9.1681 -1.24954,-1.27501 -2.89514,-1.91981 -4.54466,-1.93157 z m 30.07973,3.64738 19.33452,0 c 1.78523,0 3.22271,1.44586 3.22271,3.24154 0,1.79567 -1.43748,3.24154 -3.22271,3.24154 l -19.33452,0 c -1.78525,0 -3.22271,-1.44587 -3.22271,-3.24154 0,-1.79568 1.43746,-3.24154 3.22271,-3.24154 z m 0,32.41371 19.33452,0 c 1.78523,0 3.22271,1.44587 3.22271,3.24154 0,1.79567 -1.43748,3.239831 -3.22271,3.239831 l -19.33452,0 c -1.78525,0 -3.22271,-1.444161 -3.22271,-3.239831 0,-1.79567 1.43746,-3.24154 3.22271,-3.24154 z m -6.44541,25.930626 19.33452,0 c 1.78523,0 3.2227,1.444151 3.2227,3.239829 0,1.79567 -1.43747,3.241543 -3.2227,3.241543 l -19.33452,0 c -1.78524,0 -3.22271,-1.445873 -3.22271,-3.241543 0,-1.795678 1.43747,-3.239829 3.22271,-3.239829 z"
       id="path4400"
       inkscape:connector-curvature="0" />
    <rect
       style="color:#000000;clip-rule:nonzero;display:inline;overflow:visible;visibility:visible;opacity:0.00100002;isolation:auto;mix-blend-mode:normal;color-interpolation:sRGB;color-interpolation-filters:linearRGB;solid-color:#000000;solid-opacity:1;fill:#e6bbff;fill-opacity:0.99607843;fill-rule:nonzero;stroke:none;stroke-width:2;stroke-linecap:round;stroke-linejoin:round;stroke-miterlimit:4;stroke-dasharray:none;stroke-dashoffset:0;stroke-opacity:1;marker:none;color-rendering:auto;image-rendering:auto;shape-rendering:auto;text-rendering:auto;enable-background:accumulate"
       id="rect9449-3"
       width="256"
       height="256"
       x="512"
       y="-256"
       ry="0"
       inkscape:export-filename="/home/markus/DeusO/OCA.js/micro/images/buttons/claves.png"
       inkscape:export-xdpi="90"
       inkscape:export-ydpi="90" />
    <rect
       ry="0"
       y="-256"
       x="768"
       height="256"
       width="256"
       id="rect9451-6"
       style="color:#000000;clip-rule:nonzero;display:inline;overflow:visible;visibility:visible;opacity:0.00100002;isolation:auto;mix-blend-mode:normal;color-interpolation:sRGB;color-interpolation-filters:linearRGB;solid-color:#000000;solid-opacity:1;fill:#e6bbff;fill-opacity:0.99607843;fill-rule:nonzero;stroke:none;stroke-width:2;stroke-linecap:round;stroke-linejoin:round;stroke-miterlimit:4;stroke-dasharray:none;stroke-dashoffset:0;stroke-opacity:1;marker:none;color-rendering:auto;image-rendering:auto;shape-rendering:auto;text-rendering:auto;enable-background:accumulate"
       inkscape:export-filename="/home/markus/DeusO/OCA.js/micro/images/buttons/crash.png"
       inkscape:export-xdpi="90"
       inkscape:export-ydpi="90" />
    <rect
       style="color:#000000;clip-rule:nonzero;display:inline;overflow:visible;visibility:visible;opacity:0.00100002;isolation:auto;mix-blend-mode:normal;color-interpolation:sRGB;color-interpolation-filters:linearRGB;solid-color:#000000;solid-opacity:1;fill:#e6bbff;fill-opacity:0.99607843;fill-rule:nonzero;stroke:none;stroke-width:2;stroke-linecap:round;stroke-linejoin:round;stroke-miterlimit:4;stroke-dasharray:none;stroke-dashoffset:0;stroke-opacity:1;marker:none;color-rendering:auto;image-rendering:auto;shape-rendering:auto;text-rendering:auto;enable-background:accumulate"
       id="rect9453-7"
       width="256"
       height="256"
       x="768"
       y="0"
       ry="0"
       inkscape:export-filename="/home/markus/DeusO/OCA.js/micro/images/buttons/fx.png"
       inkscape:export-xdpi="90"
       inkscape:export-ydpi="90" />
    <rect
       ry="0"
       y="0"
       x="512"
       height="256"
       width="256"
       id="rect9455-5"
       style="color:#000000;clip-rule:nonzero;display:inline;overflow:visible;visibility:visible;opacity:0.00100002;isolation:auto;mix-blend-mode:normal;color-interpolation:sRGB;color-interpolation-filters:linearRGB;solid-color:#000000;solid-opacity:1;fill:#e6bbff;fill-opacity:0.99607843;fill-rule:nonzero;stroke:none;stroke-width:2;stroke-linecap:round;stroke-linejoin:round;stroke-miterlimit:4;stroke-dasharray:none;stroke-dashoffset:0;stroke-opacity:1;marker:none;color-rendering:auto;image-rendering:auto;shape-rendering:auto;text-rendering:auto;enable-background:accumulate"
       inkscape:export-filename="/home/markus/DeusO/OCA.js/micro/images/buttons/drums.png"
       inkscape:export-xdpi="90"
       inkscape:export-ydpi="90" />
    <rect
       style="color:#000000;clip-rule:nonzero;display:inline;overflow:visible;visibility:visible;opacity:0.00100002;isolation:auto;mix-blend-mode:normal;color-interpolation:sRGB;color-interpolation-filters:linearRGB;solid-color:#000000;solid-opacity:1;fill:#e6bbff;fill-opacity:0.99607843;fill-rule:nonzero;stroke:none;stroke-width:2;stroke-linecap:round;stroke-linejoin:round;stroke-miterlimit:4;stroke-dasharray:none;stroke-dashoffset:0;stroke-opacity:1;marker:none;color-rendering:auto;image-rendering:auto;shape-rendering:auto;text-rendering:auto;enable-background:accumulate"
       id="rect9457-3"
       width="256"
       height="256"
       x="256"
       y="0"
       ry="0"
       inkscape:export-filename="/home/markus/DeusO/OCA.js/micro/images/buttons/bass.png"
       inkscape:export-xdpi="90"
       inkscape:export-ydpi="90" />
    <rect
       ry="0"
       y="0"
       x="0"
       height="256"
       width="256"
       id="rect9459-5"
       style="color:#000000;clip-rule:nonzero;display:inline;overflow:visible;visibility:visible;opacity:0.00100002;isolation:auto;mix-blend-mode:normal;color-interpolation:sRGB;color-interpolation-filters:linearRGB;solid-color:#000000;solid-opacity:1;fill:#e6bbff;fill-opacity:0.99607843;fill-rule:nonzero;stroke:none;stroke-width:2;stroke-linecap:round;stroke-linejoin:round;stroke-miterlimit:4;stroke-dasharray:none;stroke-dashoffset:0;stroke-opacity:1;marker:none;color-rendering:auto;image-rendering:auto;shape-rendering:auto;text-rendering:auto;enable-background:accumulate"
       inkscape:export-xdpi="90"
       inkscape:export-ydpi="90" />
    <rect
       style="color:#000000;clip-rule:nonzero;display:inline;overflow:visible;visibility:visible;opacity:0.00100002;isolation:auto;mix-blend-mode:normal;color-interpolation:sRGB;color-interpolation-filters:linearRGB;solid-color:#000000;solid-opacity:1;fill:#e6bbff;fill-opacity:0.99607843;fill-rule:nonzero;stroke:none;stroke-width:2;stroke-linecap:round;stroke-linejoin:round;stroke-miterlimit:4;stroke-dasharray:none;stroke-dashoffset:0;stroke-opacity:1;marker:none;color-rendering:auto;image-rendering:auto;shape-rendering:auto;text-rendering:auto;enable-background:accumulate"
       id="rect9465-9"
       width="256"
       height="256"
       x="768"
       y="256"
       ry="0"
       inkscape:export-filename="/home/markus/DeusO/OCA.js/micro/images/buttons/claps.png"
       inkscape:export-xdpi="90"
       inkscape:export-ydpi="90" />
  </g>
</svg>
